solid Obstacle
facet normal -1.000000 0.000000 0.000000
outer loop
vertex 20.312500 6.125000 1.015137
vertex 20.312500 6.312500 1.733400
vertex 20.312500 6.312500 1.015137
endloop
endfacet
facet normal -1.000000 0.000000 0.000000
outer loop
vertex 20.312500 3.875000 1.733400
vertex 20.312500 4.062500 1.733400
vertex 20.312500 3.875000 1.015137
endloop
endfacet
facet normal -1.000000 0.000000 0.000000
outer loop
vertex 20.312500 4.062500 1.733400
vertex 20.312500 4.250000 1.733400
vertex 20.312500 4.062500 1.015137
endloop
endfacet
facet normal -1.000000 0.000000 0.000000
outer loop
vertex 20.312500 3.125000 1.733400
vertex 20.312500 2.937500 1.015137
vertex 20.312500 2.937500 1.733400
endloop
endfacet
facet normal -1.000000 0.000000 0.000000
outer loop
vertex 20.312500 4.437500 1.733400
vertex 20.312500 4.625000 1.733400
vertex 20.312500 4.437500 1.015137
endloop
endfacet
facet normal -1.000000 0.000000 0.000000
outer loop
vertex 20.312500 4.625000 1.733400
vertex 20.312500 4.812500 1.733400
vertex 20.312500 4.625000 1.015137
endloop
endfacet
facet normal -1.000000 0.000000 0.000000
outer loop
vertex 20.312500 3.312500 1.015137
vertex 20.312500 3.500000 1.733400
vertex 20.312500 3.500000 1.015137
endloop
endfacet
facet normal -1.000000 0.000000 0.000000
outer loop
vertex 20.312500 3.687500 1.733400
vertex 20.312500 3.875000 1.733400
vertex 20.312500 3.687500 1.015137
endloop
endfacet
facet normal -1.000000 0.000000 0.000000
outer loop
vertex 20.312500 2.937500 1.015137
vertex 20.312500 3.125000 1.733400
vertex 20.312500 3.125000 1.015137
endloop
endfacet
facet normal -1.000000 0.000000 0.000000
outer loop
vertex 20.312500 2.937500 1.733400
vertex 20.312500 2.937500 1.015137
vertex 20.312500 2.750000 1.015137
endloop
endfacet
facet normal -1.000000 0.000000 0.000000
outer loop
vertex 20.312500 3.500000 1.733400
vertex 20.312500 3.312500 1.015137
vertex 20.312500 3.312500 1.733400
endloop
endfacet
facet normal -1.000000 0.000000 0.000000
outer loop
vertex 20.312500 4.812500 1.733400
vertex 20.312500 5.000000 1.733400
vertex 20.312500 4.812500 1.015137
endloop
endfacet
facet normal -1.000000 0.000000 0.000000
outer loop
vertex 20.312500 3.500000 1.733400
vertex 20.312500 3.687500 1.733400
vertex 20.312500 3.500000 1.015137
endloop
endfacet
facet normal -1.000000 0.000000 0.000000
outer loop
vertex 20.312500 5.000000 1.733400
vertex 20.312500 5.187500 1.733400
vertex 20.312500 5.000000 1.015137
endloop
endfacet
facet normal -1.000000 0.000000 0.000000
outer loop
vertex 20.312500 2.937500 1.733400
vertex 20.312500 2.750000 1.015137
vertex 20.312500 2.750000 1.733400
endloop
endfacet
facet normal -1.000000 0.000000 0.000000
outer loop
vertex 20.312500 3.500000 1.015137
vertex 20.312500 3.687500 1.733400
vertex 20.312500 3.687500 1.015137
endloop
endfacet
facet normal -1.000000 0.000000 0.000000
outer loop
vertex 20.312500 5.187500 1.733400
vertex 20.312500 5.375000 1.733400
vertex 20.312500 5.187500 1.015137
endloop
endfacet
facet normal -1.000000 0.000000 0.000000
outer loop
vertex 20.312500 3.125000 1.733400
vertex 20.312500 3.312500 1.733400
vertex 20.312500 3.125000 1.015137
endloop
endfacet
facet normal -1.000000 0.000000 0.000000
outer loop
vertex 20.312500 2.750000 1.733400
vertex 20.312500 2.750000 1.015137
vertex 20.312500 2.562500 1.015137
endloop
endfacet
facet normal -1.000000 0.000000 0.000000
outer loop
vertex 20.312500 2.750000 1.733400
vertex 20.312500 2.562500 1.015137
vertex 20.312500 2.562500 1.733400
endloop
endfacet
facet normal -1.000000 0.000000 0.000000
outer loop
vertex 20.312500 5.375000 1.733400
vertex 20.312500 5.562500 1.733400
vertex 20.312500 5.375000 1.015137
endloop
endfacet
facet normal -1.000000 0.000000 0.000000
outer loop
vertex 20.312500 3.687500 1.015137
vertex 20.312500 3.875000 1.733400
vertex 20.312500 3.875000 1.015137
endloop
endfacet
facet normal -1.000000 0.000000 0.000000
outer loop
vertex 20.312500 2.562500 1.733400
vertex 20.312500 2.562500 1.015137
vertex 20.312500 2.375000 1.015137
endloop
endfacet
facet normal -1.000000 0.000000 0.000000
outer loop
vertex 20.312500 5.562500 1.733400
vertex 20.312500 5.750000 1.733400
vertex 20.312500 5.562500 1.015137
endloop
endfacet
facet normal -1.000000 0.000000 0.000000
outer loop
vertex 20.312500 5.750000 1.733400
vertex 20.312500 5.937500 1.733400
vertex 20.312500 5.750000 1.015137
endloop
endfacet
facet normal -1.000000 0.000000 0.000000
outer loop
vertex 20.312500 2.562500 1.733400
vertex 20.312500 2.375000 1.015137
vertex 20.312500 2.375000 1.733400
endloop
endfacet
facet normal -1.000000 0.000000 0.000000
outer loop
vertex 20.312500 3.875000 1.015137
vertex 20.312500 4.062500 1.733400
vertex 20.312500 4.062500 1.015137
endloop
endfacet
facet normal -1.000000 0.000000 0.000000
outer loop
vertex 20.312500 5.937500 1.733400
vertex 20.312500 6.125000 1.733400
vertex 20.312500 5.937500 1.015137
endloop
endfacet
facet normal -1.000000 0.000000 0.000000
outer loop
vertex 20.312500 2.375000 1.733400
vertex 20.312500 2.375000 1.015137
vertex 20.312500 2.187500 1.015137
endloop
endfacet
facet normal -1.000000 0.000000 0.000000
outer loop
vertex 20.312500 2.375000 1.733400
vertex 20.312500 2.187500 1.015137
vertex 20.312500 2.187500 1.733400
endloop
endfacet
facet normal -1.000000 0.000000 0.000000
outer loop
vertex 20.312500 6.125000 1.733400
vertex 20.312500 6.312500 1.733400
vertex 20.312500 6.125000 1.015137
endloop
endfacet
facet normal -1.000000 0.000000 0.000000
outer loop
vertex 20.312500 4.062500 1.015137
vertex 20.312500 4.250000 1.733400
vertex 20.312500 4.250000 1.015137
endloop
endfacet
facet normal -1.000000 0.000000 0.000000
outer loop
vertex 20.312500 2.187500 1.733400
vertex 20.312500 2.187500 1.015137
vertex 20.312500 2.000000 1.015137
endloop
endfacet
facet normal -1.000000 0.000000 0.000000
outer loop
vertex 20.312500 6.312500 1.733400
vertex 20.312500 6.500000 1.733400
vertex 20.312500 6.312500 1.015137
endloop
endfacet
facet normal -1.000000 0.000000 0.000000
outer loop
vertex 20.312500 2.000000 1.733400
vertex 20.312500 2.187500 1.733400
vertex 20.312500 2.000000 1.015137
endloop
endfacet
facet normal -1.000000 0.000000 0.000000
outer loop
vertex 20.312500 4.250000 1.015137
vertex 20.312500 4.250000 1.733400
vertex 20.312500 4.437500 1.733400
endloop
endfacet
facet normal -1.000000 0.000000 0.000000
outer loop
vertex 20.312500 6.500000 1.733400
vertex 20.312500 6.687500 1.733400
vertex 20.312500 6.500000 1.015137
endloop
endfacet
facet normal -1.000000 0.000000 0.000000
outer loop
vertex 20.312500 4.250000 1.015137
vertex 20.312500 4.437500 1.733400
vertex 20.312500 4.437500 1.015137
endloop
endfacet
facet normal -1.000000 0.000000 0.000000
outer loop
vertex 20.312500 6.687500 1.733400
vertex 20.312500 6.875000 1.733400
vertex 20.312500 6.687500 1.015137
endloop
endfacet
facet normal -1.000000 0.000000 0.000000
outer loop
vertex 20.312500 4.625000 1.733400
vertex 20.312500 4.625000 1.015137
vertex 20.312500 4.437500 1.015137
endloop
endfacet
facet normal -1.000000 0.000000 0.000000
outer loop
vertex 20.312500 3.125000 1.015137
vertex 20.312500 3.312500 1.733400
vertex 20.312500 3.312500 1.015137
endloop
endfacet
facet normal -1.000000 0.000000 0.000000
outer loop
vertex 20.312500 6.875000 1.733400
vertex 20.312500 7.062500 1.733400
vertex 20.312500 6.875000 1.015137
endloop
endfacet
facet normal -1.000000 0.000000 0.000000
outer loop
vertex 20.312500 7.062500 1.733400
vertex 20.312500 7.250000 1.733400
vertex 20.312500 7.062500 1.015137
endloop
endfacet
facet normal -1.000000 0.000000 0.000000
outer loop
vertex 20.312500 5.000000 1.733400
vertex 20.312500 5.000000 1.015137
vertex 20.312500 4.812500 1.015137
endloop
endfacet
facet normal -1.000000 0.000000 0.000000
outer loop
vertex 20.312500 4.625000 1.015137
vertex 20.312500 4.812500 1.733400
vertex 20.312500 4.812500 1.015137
endloop
endfacet
facet normal -1.000000 0.000000 0.000000
outer loop
vertex 20.312500 7.250000 1.733400
vertex 20.312500 7.437500 1.733400
vertex 20.312500 7.250000 1.015137
endloop
endfacet
facet normal -1.000000 0.000000 0.000000
outer loop
vertex 20.312500 7.437500 1.733400
vertex 20.312500 7.625000 1.733400
vertex 20.312500 7.437500 1.015137
endloop
endfacet
facet normal -1.000000 0.000000 0.000000
outer loop
vertex 20.312500 5.375000 1.733400
vertex 20.312500 5.375000 1.015137
vertex 20.312500 5.187500 1.015137
endloop
endfacet
facet normal -1.000000 0.000000 0.000000
outer loop
vertex 20.312500 5.000000 1.015137
vertex 20.312500 5.187500 1.733400
vertex 20.312500 5.187500 1.015137
endloop
endfacet
facet normal -1.000000 0.000000 0.000000
outer loop
vertex 20.312500 7.625000 1.733400
vertex 20.312500 7.812500 1.733400
vertex 20.312500 7.812500 1.015137
endloop
endfacet
facet normal -1.000000 0.000000 0.000000
outer loop
vertex 20.312500 7.812500 1.733400
vertex 20.312500 8.000000 1.733400
vertex 20.312500 8.000000 1.015137
endloop
endfacet
facet normal -1.000000 0.000000 0.000000
outer loop
vertex 20.312500 5.375000 1.015137
vertex 20.312500 5.562500 1.733400
vertex 20.312500 5.562500 1.015137
endloop
endfacet
facet normal -1.000000 0.000000 0.000000
outer loop
vertex 20.312500 7.812500 1.733400
vertex 20.312500 8.000000 1.015137
vertex 20.312500 7.812500 1.015137
endloop
endfacet
facet normal -1.000000 0.000000 0.000000
outer loop
vertex 20.312500 7.812500 1.015137
vertex 20.312500 7.625000 1.015137
vertex 20.312500 7.625000 1.733400
endloop
endfacet
facet normal -1.000000 0.000000 0.000000
outer loop
vertex 20.312500 7.625000 1.015137
vertex 20.312500 7.437500 1.015137
vertex 20.312500 7.625000 1.733400
endloop
endfacet
facet normal -1.000000 0.000000 0.000000
outer loop
vertex 20.312500 5.750000 1.015137
vertex 20.312500 5.937500 1.733400
vertex 20.312500 5.937500 1.015137
endloop
endfacet
facet normal -1.000000 0.000000 0.000000
outer loop
vertex 20.312500 5.562500 1.015137
vertex 20.312500 5.750000 1.733400
vertex 20.312500 5.750000 1.015137
endloop
endfacet
facet normal -1.000000 0.000000 0.000000
outer loop
vertex 20.312500 7.250000 1.015137
vertex 20.312500 7.062500 1.015137
vertex 20.312500 7.250000 1.733400
endloop
endfacet
facet normal -1.000000 0.000000 0.000000
outer loop
vertex 20.312500 7.062500 1.015137
vertex 20.312500 6.875000 1.015137
vertex 20.312500 7.062500 1.733400
endloop
endfacet
facet normal -1.000000 0.000000 0.000000
outer loop
vertex 20.312500 7.250000 1.015137
vertex 20.312500 7.437500 1.733400
vertex 20.312500 7.437500 1.015137
endloop
endfacet
facet normal -1.000000 0.000000 0.000000
outer loop
vertex 20.312500 6.125000 1.733400
vertex 20.312500 6.125000 1.015137
vertex 20.312500 5.937500 1.015137
endloop
endfacet
facet normal -1.000000 0.000000 0.000000
outer loop
vertex 20.312500 6.687500 1.015137
vertex 20.312500 6.500000 1.015137
vertex 20.312500 6.687500 1.733400
endloop
endfacet
facet normal -1.000000 0.000000 0.000000
outer loop
vertex 20.312500 6.500000 1.015137
vertex 20.312500 6.312500 1.015137
vertex 20.312500 6.500000 1.733400
endloop
endfacet
facet normal -1.000000 0.000000 0.000000
outer loop
vertex 20.312500 6.875000 1.015137
vertex 20.312500 6.687500 1.015137
vertex 20.312500 6.875000 1.733400
endloop
endfacet
facet normal -1.000000 0.000000 0.000000
outer loop
vertex 20.312500 7.812500 1.015137
vertex 20.312500 8.000000 0.296875
vertex 20.312500 7.812500 0.296875
endloop
endfacet
facet normal -1.000000 0.000000 0.000000
outer loop
vertex 20.312500 2.000000 0.296875
vertex 20.312500 2.000000 1.015137
vertex 20.312500 2.187500 1.015137
endloop
endfacet
facet normal -1.000000 0.000000 0.000000
outer loop
vertex 20.312500 2.375000 1.015137
vertex 20.312500 2.562500 1.015137
vertex 20.312500 2.375000 0.296875
endloop
endfacet
facet normal -1.000000 0.000000 0.000000
outer loop
vertex 20.312500 2.562500 1.015137
vertex 20.312500 2.750000 1.015137
vertex 20.312500 2.562500 0.296875
endloop
endfacet
facet normal -1.000000 0.000000 0.000000
outer loop
vertex 20.312500 2.375000 1.015137
vertex 20.312500 2.375000 0.296875
vertex 20.312500 2.187500 0.296875
endloop
endfacet
facet normal -1.000000 0.000000 0.000000
outer loop
vertex 20.312500 2.000000 0.296875
vertex 20.312500 2.187500 1.015137
vertex 20.312500 2.187500 0.296875
endloop
endfacet
facet normal -1.000000 0.000000 0.000000
outer loop
vertex 20.312500 2.187500 1.015137
vertex 20.312500 2.375000 1.015137
vertex 20.312500 2.187500 0.296875
endloop
endfacet
facet normal -1.000000 0.000000 0.000000
outer loop
vertex 20.312500 2.562500 0.296875
vertex 20.312500 2.375000 0.296875
vertex 20.312500 2.562500 1.015137
endloop
endfacet
facet normal -1.000000 0.000000 0.000000
outer loop
vertex 20.312500 2.750000 1.015137
vertex 20.312500 2.937500 1.015137
vertex 20.312500 2.750000 0.296875
endloop
endfacet
facet normal -1.000000 0.000000 0.000000
outer loop
vertex 20.312500 2.937500 1.015137
vertex 20.312500 3.125000 1.015137
vertex 20.312500 2.937500 0.296875
endloop
endfacet
facet normal -1.000000 0.000000 0.000000
outer loop
vertex 20.312500 2.750000 1.015137
vertex 20.312500 2.750000 0.296875
vertex 20.312500 2.562500 0.296875
endloop
endfacet
facet normal -1.000000 0.000000 0.000000
outer loop
vertex 20.312500 2.937500 0.296875
vertex 20.312500 2.750000 0.296875
vertex 20.312500 2.937500 1.015137
endloop
endfacet
facet normal -1.000000 0.000000 0.000000
outer loop
vertex 20.312500 3.125000 1.015137
vertex 20.312500 3.312500 1.015137
vertex 20.312500 3.125000 0.296875
endloop
endfacet
facet normal -1.000000 0.000000 0.000000
outer loop
vertex 20.312500 3.312500 1.015137
vertex 20.312500 3.500000 1.015137
vertex 20.312500 3.312500 0.296875
endloop
endfacet
facet normal -1.000000 0.000000 0.000000
outer loop
vertex 20.312500 3.125000 1.015137
vertex 20.312500 3.125000 0.296875
vertex 20.312500 2.937500 0.296875
endloop
endfacet
facet normal -1.000000 0.000000 0.000000
outer loop
vertex 20.312500 3.312500 0.296875
vertex 20.312500 3.125000 0.296875
vertex 20.312500 3.312500 1.015137
endloop
endfacet
facet normal -1.000000 0.000000 0.000000
outer loop
vertex 20.312500 3.500000 1.015137
vertex 20.312500 3.687500 1.015137
vertex 20.312500 3.500000 0.296875
endloop
endfacet
facet normal -1.000000 0.000000 0.000000
outer loop
vertex 20.312500 3.687500 1.015137
vertex 20.312500 3.875000 1.015137
vertex 20.312500 3.687500 0.296875
endloop
endfacet
facet normal -1.000000 0.000000 0.000000
outer loop
vertex 20.312500 3.500000 1.015137
vertex 20.312500 3.500000 0.296875
vertex 20.312500 3.312500 0.296875
endloop
endfacet
facet normal -1.000000 0.000000 0.000000
outer loop
vertex 20.312500 3.687500 0.296875
vertex 20.312500 3.500000 0.296875
vertex 20.312500 3.687500 1.015137
endloop
endfacet
facet normal -1.000000 0.000000 0.000000
outer loop
vertex 20.312500 3.875000 1.015137
vertex 20.312500 4.062500 1.015137
vertex 20.312500 3.875000 0.296875
endloop
endfacet
facet normal -1.000000 0.000000 0.000000
outer loop
vertex 20.312500 4.062500 1.015137
vertex 20.312500 4.250000 1.015137
vertex 20.312500 4.062500 0.296875
endloop
endfacet
facet normal -1.000000 0.000000 0.000000
outer loop
vertex 20.312500 3.875000 1.015137
vertex 20.312500 3.875000 0.296875
vertex 20.312500 3.687500 0.296875
endloop
endfacet
facet normal -1.000000 0.000000 0.000000
outer loop
vertex 20.312500 4.062500 0.296875
vertex 20.312500 3.875000 0.296875
vertex 20.312500 4.062500 1.015137
endloop
endfacet
facet normal -1.000000 0.000000 0.000000
outer loop
vertex 20.312500 4.250000 1.015137
vertex 20.312500 4.437500 1.015137
vertex 20.312500 4.250000 0.296875
endloop
endfacet
facet normal -1.000000 0.000000 0.000000
outer loop
vertex 20.312500 4.437500 1.015137
vertex 20.312500 4.625000 1.015137
vertex 20.312500 4.437500 0.296875
endloop
endfacet
facet normal -1.000000 0.000000 0.000000
outer loop
vertex 20.312500 4.250000 1.015137
vertex 20.312500 4.250000 0.296875
vertex 20.312500 4.062500 0.296875
endloop
endfacet
facet normal -1.000000 0.000000 0.000000
outer loop
vertex 20.312500 4.437500 0.296875
vertex 20.312500 4.250000 0.296875
vertex 20.312500 4.437500 1.015137
endloop
endfacet
facet normal -1.000000 0.000000 0.000000
outer loop
vertex 20.312500 4.625000 1.015137
vertex 20.312500 4.812500 1.015137
vertex 20.312500 4.625000 0.296875
endloop
endfacet
facet normal -1.000000 0.000000 0.000000
outer loop
vertex 20.312500 4.812500 1.015137
vertex 20.312500 5.000000 1.015137
vertex 20.312500 4.812500 0.296875
endloop
endfacet
facet normal -1.000000 0.000000 0.000000
outer loop
vertex 20.312500 4.625000 1.015137
vertex 20.312500 4.625000 0.296875
vertex 20.312500 4.437500 0.296875
endloop
endfacet
facet normal -1.000000 0.000000 0.000000
outer loop
vertex 20.312500 4.812500 0.296875
vertex 20.312500 4.625000 0.296875
vertex 20.312500 4.812500 1.015137
endloop
endfacet
facet normal -1.000000 0.000000 0.000000
outer loop
vertex 20.312500 5.000000 1.015137
vertex 20.312500 5.187500 1.015137
vertex 20.312500 5.000000 0.296875
endloop
endfacet
facet normal -1.000000 0.000000 0.000000
outer loop
vertex 20.312500 5.187500 1.015137
vertex 20.312500 5.375000 1.015137
vertex 20.312500 5.187500 0.296875
endloop
endfacet
facet normal -1.000000 0.000000 0.000000
outer loop
vertex 20.312500 5.000000 1.015137
vertex 20.312500 5.000000 0.296875
vertex 20.312500 4.812500 0.296875
endloop
endfacet
facet normal -1.000000 0.000000 0.000000
outer loop
vertex 20.312500 5.187500 0.296875
vertex 20.312500 5.000000 0.296875
vertex 20.312500 5.187500 1.015137
endloop
endfacet
facet normal -1.000000 0.000000 0.000000
outer loop
vertex 20.312500 5.375000 1.015137
vertex 20.312500 5.562500 1.015137
vertex 20.312500 5.375000 0.296875
endloop
endfacet
facet normal -1.000000 0.000000 0.000000
outer loop
vertex 20.312500 5.562500 1.015137
vertex 20.312500 5.750000 1.015137
vertex 20.312500 5.562500 0.296875
endloop
endfacet
facet normal -1.000000 0.000000 0.000000
outer loop
vertex 20.312500 5.375000 1.015137
vertex 20.312500 5.375000 0.296875
vertex 20.312500 5.187500 0.296875
endloop
endfacet
facet normal -1.000000 0.000000 0.000000
outer loop
vertex 20.312500 5.562500 0.296875
vertex 20.312500 5.375000 0.296875
vertex 20.312500 5.562500 1.015137
endloop
endfacet
facet normal -1.000000 0.000000 0.000000
outer loop
vertex 20.312500 5.750000 1.015137
vertex 20.312500 5.937500 1.015137
vertex 20.312500 5.750000 0.296875
endloop
endfacet
facet normal -1.000000 0.000000 0.000000
outer loop
vertex 20.312500 5.937500 1.015137
vertex 20.312500 6.125000 1.015137
vertex 20.312500 5.937500 0.296875
endloop
endfacet
facet normal -1.000000 0.000000 0.000000
outer loop
vertex 20.312500 5.750000 1.015137
vertex 20.312500 5.750000 0.296875
vertex 20.312500 5.562500 0.296875
endloop
endfacet
facet normal -1.000000 0.000000 0.000000
outer loop
vertex 20.312500 5.937500 0.296875
vertex 20.312500 5.750000 0.296875
vertex 20.312500 5.937500 1.015137
endloop
endfacet
facet normal -1.000000 0.000000 0.000000
outer loop
vertex 20.312500 6.125000 1.015137
vertex 20.312500 6.312500 1.015137
vertex 20.312500 6.125000 0.296875
endloop
endfacet
facet normal -1.000000 0.000000 0.000000
outer loop
vertex 20.312500 6.312500 1.015137
vertex 20.312500 6.500000 1.015137
vertex 20.312500 6.312500 0.296875
endloop
endfacet
facet normal -1.000000 0.000000 0.000000
outer loop
vertex 20.312500 6.125000 1.015137
vertex 20.312500 6.125000 0.296875
vertex 20.312500 5.937500 0.296875
endloop
endfacet
facet normal -1.000000 0.000000 0.000000
outer loop
vertex 20.312500 6.312500 0.296875
vertex 20.312500 6.125000 0.296875
vertex 20.312500 6.312500 1.015137
endloop
endfacet
facet normal -1.000000 0.000000 0.000000
outer loop
vertex 20.312500 6.500000 1.015137
vertex 20.312500 6.687500 1.015137
vertex 20.312500 6.500000 0.296875
endloop
endfacet
facet normal -1.000000 0.000000 0.000000
outer loop
vertex 20.312500 6.687500 1.015137
vertex 20.312500 6.875000 1.015137
vertex 20.312500 6.687500 0.296875
endloop
endfacet
facet normal -1.000000 0.000000 0.000000
outer loop
vertex 20.312500 6.500000 1.015137
vertex 20.312500 6.500000 0.296875
vertex 20.312500 6.312500 0.296875
endloop
endfacet
facet normal -1.000000 0.000000 0.000000
outer loop
vertex 20.312500 6.687500 0.296875
vertex 20.312500 6.500000 0.296875
vertex 20.312500 6.687500 1.015137
endloop
endfacet
facet normal -1.000000 0.000000 0.000000
outer loop
vertex 20.312500 6.875000 1.015137
vertex 20.312500 7.062500 1.015137
vertex 20.312500 6.875000 0.296875
endloop
endfacet
facet normal -1.000000 0.000000 0.000000
outer loop
vertex 20.312500 7.062500 1.015137
vertex 20.312500 7.250000 1.015137
vertex 20.312500 7.062500 0.296875
endloop
endfacet
facet normal -1.000000 0.000000 0.000000
outer loop
vertex 20.312500 6.875000 1.015137
vertex 20.312500 6.875000 0.296875
vertex 20.312500 6.687500 0.296875
endloop
endfacet
facet normal -1.000000 0.000000 0.000000
outer loop
vertex 20.312500 7.062500 0.296875
vertex 20.312500 6.875000 0.296875
vertex 20.312500 7.062500 1.015137
endloop
endfacet
facet normal -1.000000 0.000000 0.000000
outer loop
vertex 20.312500 7.250000 1.015137
vertex 20.312500 7.437500 1.015137
vertex 20.312500 7.250000 0.296875
endloop
endfacet
facet normal -1.000000 0.000000 0.000000
outer loop
vertex 20.312500 7.437500 1.015137
vertex 20.312500 7.625000 1.015137
vertex 20.312500 7.437500 0.296875
endloop
endfacet
facet normal -1.000000 0.000000 0.000000
outer loop
vertex 20.312500 7.250000 1.015137
vertex 20.312500 7.250000 0.296875
vertex 20.312500 7.062500 0.296875
endloop
endfacet
facet normal -1.000000 0.000000 0.000000
outer loop
vertex 20.312500 7.437500 0.296875
vertex 20.312500 7.250000 0.296875
vertex 20.312500 7.437500 1.015137
endloop
endfacet
facet normal -1.000000 0.000000 0.000000
outer loop
vertex 20.312500 7.625000 1.015137
vertex 20.312500 7.812500 1.015137
vertex 20.312500 7.812500 0.296875
endloop
endfacet
facet normal -1.000000 0.000000 0.000000
outer loop
vertex 20.312500 7.812500 1.015137
vertex 20.312500 8.000000 1.015137
vertex 20.312500 8.000000 0.296875
endloop
endfacet
facet normal -1.000000 0.000000 0.000000
outer loop
vertex 20.312500 7.812500 0.296875
vertex 20.312500 7.625000 0.296875
vertex 20.312500 7.625000 1.015137
endloop
endfacet
facet normal -1.000000 0.000000 0.000000
outer loop
vertex 20.312500 7.625000 0.296875
vertex 20.312500 7.437500 0.296875
vertex 20.312500 7.625000 1.015137
endloop
endfacet
facet normal 1.000000 0.000000 0.000000
outer loop
vertex 18.750000 2.187500 1.030762
vertex 18.750000 2.000000 0.312500
vertex 18.750000 2.187500 0.312500
endloop
endfacet
facet normal 1.000000 0.000000 0.000000
outer loop
vertex 18.750000 8.000000 0.312500
vertex 18.750000 8.000000 1.030762
vertex 18.750000 7.812500 1.030762
endloop
endfacet
facet normal 1.000000 0.000000 0.000000
outer loop
vertex 18.750000 7.625000 1.030762
vertex 18.750000 7.437500 1.030762
vertex 18.750000 7.625000 0.312500
endloop
endfacet
facet normal 1.000000 0.000000 0.000000
outer loop
vertex 18.750000 7.437500 1.030762
vertex 18.750000 7.250000 1.030762
vertex 18.750000 7.437500 0.312500
endloop
endfacet
facet normal 1.000000 0.000000 0.000000
outer loop
vertex 18.750000 7.625000 1.030762
vertex 18.750000 7.625000 0.312500
vertex 18.750000 7.812500 0.312500
endloop
endfacet
facet normal 1.000000 0.000000 0.000000
outer loop
vertex 18.750000 8.000000 0.312500
vertex 18.750000 7.812500 1.030762
vertex 18.750000 7.812500 0.312500
endloop
endfacet
facet normal 1.000000 0.000000 0.000000
outer loop
vertex 18.750000 7.812500 1.030762
vertex 18.750000 7.625000 1.030762
vertex 18.750000 7.812500 0.312500
endloop
endfacet
facet normal 1.000000 0.000000 0.000000
outer loop
vertex 18.750000 7.437500 0.312500
vertex 18.750000 7.625000 0.312500
vertex 18.750000 7.437500 1.030762
endloop
endfacet
facet normal 1.000000 0.000000 0.000000
outer loop
vertex 18.750000 7.250000 1.030762
vertex 18.750000 7.062500 1.030762
vertex 18.750000 7.250000 0.312500
endloop
endfacet
facet normal 1.000000 0.000000 0.000000
outer loop
vertex 18.750000 7.062500 1.030762
vertex 18.750000 6.875000 1.030762
vertex 18.750000 7.062500 0.312500
endloop
endfacet
facet normal 1.000000 0.000000 0.000000
outer loop
vertex 18.750000 7.250000 1.030762
vertex 18.750000 7.250000 0.312500
vertex 18.750000 7.437500 0.312500
endloop
endfacet
facet normal 1.000000 0.000000 0.000000
outer loop
vertex 18.750000 7.062500 0.312500
vertex 18.750000 7.250000 0.312500
vertex 18.750000 7.062500 1.030762
endloop
endfacet
facet normal 1.000000 0.000000 0.000000
outer loop
vertex 18.750000 6.875000 1.030762
vertex 18.750000 6.687500 1.030762
vertex 18.750000 6.875000 0.312500
endloop
endfacet
facet normal 1.000000 0.000000 0.000000
outer loop
vertex 18.750000 6.687500 1.030762
vertex 18.750000 6.500000 1.030762
vertex 18.750000 6.687500 0.312500
endloop
endfacet
facet normal 1.000000 0.000000 0.000000
outer loop
vertex 18.750000 6.875000 1.030762
vertex 18.750000 6.875000 0.312500
vertex 18.750000 7.062500 0.312500
endloop
endfacet
facet normal 1.000000 0.000000 0.000000
outer loop
vertex 18.750000 6.687500 0.312500
vertex 18.750000 6.875000 0.312500
vertex 18.750000 6.687500 1.030762
endloop
endfacet
facet normal 1.000000 0.000000 0.000000
outer loop
vertex 18.750000 6.500000 1.030762
vertex 18.750000 6.312500 1.030762
vertex 18.750000 6.500000 0.312500
endloop
endfacet
facet normal 1.000000 0.000000 0.000000
outer loop
vertex 18.750000 6.312500 1.030762
vertex 18.750000 6.125000 1.030762
vertex 18.750000 6.312500 0.312500
endloop
endfacet
facet normal 1.000000 0.000000 0.000000
outer loop
vertex 18.750000 6.500000 1.030762
vertex 18.750000 6.500000 0.312500
vertex 18.750000 6.687500 0.312500
endloop
endfacet
facet normal 1.000000 0.000000 0.000000
outer loop
vertex 18.750000 6.312500 0.312500
vertex 18.750000 6.500000 0.312500
vertex 18.750000 6.312500 1.030762
endloop
endfacet
facet normal 1.000000 0.000000 0.000000
outer loop
vertex 18.750000 6.125000 1.030762
vertex 18.750000 5.937500 1.030762
vertex 18.750000 6.125000 0.312500
endloop
endfacet
facet normal 1.000000 0.000000 0.000000
outer loop
vertex 18.750000 5.937500 1.030762
vertex 18.750000 5.750000 1.030762
vertex 18.750000 5.937500 0.312500
endloop
endfacet
facet normal 1.000000 0.000000 0.000000
outer loop
vertex 18.750000 6.125000 1.030762
vertex 18.750000 6.125000 0.312500
vertex 18.750000 6.312500 0.312500
endloop
endfacet
facet normal 1.000000 0.000000 0.000000
outer loop
vertex 18.750000 5.937500 0.312500
vertex 18.750000 6.125000 0.312500
vertex 18.750000 5.937500 1.030762
endloop
endfacet
facet normal 1.000000 0.000000 0.000000
outer loop
vertex 18.750000 5.750000 1.030762
vertex 18.750000 5.562500 1.030762
vertex 18.750000 5.750000 0.312500
endloop
endfacet
facet normal 1.000000 0.000000 0.000000
outer loop
vertex 18.750000 5.562500 1.030762
vertex 18.750000 5.375000 1.030762
vertex 18.750000 5.562500 0.312500
endloop
endfacet
facet normal 1.000000 0.000000 0.000000
outer loop
vertex 18.750000 5.750000 1.030762
vertex 18.750000 5.750000 0.312500
vertex 18.750000 5.937500 0.312500
endloop
endfacet
facet normal 1.000000 0.000000 0.000000
outer loop
vertex 18.750000 5.562500 0.312500
vertex 18.750000 5.750000 0.312500
vertex 18.750000 5.562500 1.030762
endloop
endfacet
facet normal 1.000000 0.000000 0.000000
outer loop
vertex 18.750000 5.375000 1.030762
vertex 18.750000 5.187500 1.030762
vertex 18.750000 5.375000 0.312500
endloop
endfacet
facet normal 1.000000 0.000000 0.000000
outer loop
vertex 18.750000 5.187500 1.030762
vertex 18.750000 5.000000 1.030762
vertex 18.750000 5.187500 0.312500
endloop
endfacet
facet normal 1.000000 0.000000 0.000000
outer loop
vertex 18.750000 5.375000 1.030762
vertex 18.750000 5.375000 0.312500
vertex 18.750000 5.562500 0.312500
endloop
endfacet
facet normal 1.000000 0.000000 0.000000
outer loop
vertex 18.750000 5.187500 0.312500
vertex 18.750000 5.375000 0.312500
vertex 18.750000 5.187500 1.030762
endloop
endfacet
facet normal 1.000000 0.000000 0.000000
outer loop
vertex 18.750000 5.000000 1.030762
vertex 18.750000 4.812500 1.030762
vertex 18.750000 5.000000 0.312500
endloop
endfacet
facet normal 1.000000 0.000000 0.000000
outer loop
vertex 18.750000 4.812500 1.030762
vertex 18.750000 4.625000 1.030762
vertex 18.750000 4.812500 0.312500
endloop
endfacet
facet normal 1.000000 0.000000 0.000000
outer loop
vertex 18.750000 5.000000 1.030762
vertex 18.750000 5.000000 0.312500
vertex 18.750000 5.187500 0.312500
endloop
endfacet
facet normal 1.000000 0.000000 0.000000
outer loop
vertex 18.750000 4.812500 0.312500
vertex 18.750000 5.000000 0.312500
vertex 18.750000 4.812500 1.030762
endloop
endfacet
facet normal 1.000000 0.000000 0.000000
outer loop
vertex 18.750000 4.625000 1.030762
vertex 18.750000 4.437500 1.030762
vertex 18.750000 4.625000 0.312500
endloop
endfacet
facet normal 1.000000 0.000000 0.000000
outer loop
vertex 18.750000 4.437500 1.030762
vertex 18.750000 4.250000 1.030762
vertex 18.750000 4.437500 0.312500
endloop
endfacet
facet normal 1.000000 0.000000 0.000000
outer loop
vertex 18.750000 4.625000 1.030762
vertex 18.750000 4.625000 0.312500
vertex 18.750000 4.812500 0.312500
endloop
endfacet
facet normal 1.000000 0.000000 0.000000
outer loop
vertex 18.750000 4.437500 0.312500
vertex 18.750000 4.625000 0.312500
vertex 18.750000 4.437500 1.030762
endloop
endfacet
facet normal 1.000000 0.000000 0.000000
outer loop
vertex 18.750000 4.250000 1.030762
vertex 18.750000 4.062500 1.030762
vertex 18.750000 4.250000 0.312500
endloop
endfacet
facet normal 1.000000 0.000000 0.000000
outer loop
vertex 18.750000 4.062500 1.030762
vertex 18.750000 3.875000 1.030762
vertex 18.750000 4.062500 0.312500
endloop
endfacet
facet normal 1.000000 0.000000 0.000000
outer loop
vertex 18.750000 4.250000 1.030762
vertex 18.750000 4.250000 0.312500
vertex 18.750000 4.437500 0.312500
endloop
endfacet
facet normal 1.000000 0.000000 0.000000
outer loop
vertex 18.750000 4.062500 0.312500
vertex 18.750000 4.250000 0.312500
vertex 18.750000 4.062500 1.030762
endloop
endfacet
facet normal 1.000000 0.000000 0.000000
outer loop
vertex 18.750000 3.875000 1.030762
vertex 18.750000 3.687500 1.030762
vertex 18.750000 3.875000 0.312500
endloop
endfacet
facet normal 1.000000 0.000000 0.000000
outer loop
vertex 18.750000 3.687500 1.030762
vertex 18.750000 3.500000 1.030762
vertex 18.750000 3.687500 0.312500
endloop
endfacet
facet normal 1.000000 0.000000 0.000000
outer loop
vertex 18.750000 3.875000 1.030762
vertex 18.750000 3.875000 0.312500
vertex 18.750000 4.062500 0.312500
endloop
endfacet
facet normal 1.000000 0.000000 0.000000
outer loop
vertex 18.750000 3.687500 0.312500
vertex 18.750000 3.875000 0.312500
vertex 18.750000 3.687500 1.030762
endloop
endfacet
facet normal 1.000000 0.000000 0.000000
outer loop
vertex 18.750000 3.500000 1.030762
vertex 18.750000 3.312500 1.030762
vertex 18.750000 3.500000 0.312500
endloop
endfacet
facet normal 1.000000 0.000000 0.000000
outer loop
vertex 18.750000 3.312500 1.030762
vertex 18.750000 3.125000 1.030762
vertex 18.750000 3.312500 0.312500
endloop
endfacet
facet normal 1.000000 0.000000 0.000000
outer loop
vertex 18.750000 3.500000 1.030762
vertex 18.750000 3.500000 0.312500
vertex 18.750000 3.687500 0.312500
endloop
endfacet
facet normal 1.000000 0.000000 0.000000
outer loop
vertex 18.750000 3.312500 0.312500
vertex 18.750000 3.500000 0.312500
vertex 18.750000 3.312500 1.030762
endloop
endfacet
facet normal 1.000000 0.000000 0.000000
outer loop
vertex 18.750000 3.125000 1.030762
vertex 18.750000 2.937500 1.030762
vertex 18.750000 3.125000 0.312500
endloop
endfacet
facet normal 1.000000 0.000000 0.000000
outer loop
vertex 18.750000 2.937500 1.030762
vertex 18.750000 2.750000 1.030762
vertex 18.750000 2.937500 0.312500
endloop
endfacet
facet normal 1.000000 0.000000 0.000000
outer loop
vertex 18.750000 3.125000 1.030762
vertex 18.750000 3.125000 0.312500
vertex 18.750000 3.312500 0.312500
endloop
endfacet
facet normal 1.000000 0.000000 0.000000
outer loop
vertex 18.750000 2.937500 0.312500
vertex 18.750000 3.125000 0.312500
vertex 18.750000 2.937500 1.030762
endloop
endfacet
facet normal 1.000000 0.000000 0.000000
outer loop
vertex 18.750000 2.750000 1.030762
vertex 18.750000 2.562500 1.030762
vertex 18.750000 2.750000 0.312500
endloop
endfacet
facet normal 1.000000 0.000000 0.000000
outer loop
vertex 18.750000 2.562500 1.030762
vertex 18.750000 2.375000 1.030762
vertex 18.750000 2.562500 0.312500
endloop
endfacet
facet normal 1.000000 0.000000 0.000000
outer loop
vertex 18.750000 2.750000 1.030762
vertex 18.750000 2.750000 0.312500
vertex 18.750000 2.937500 0.312500
endloop
endfacet
facet normal 1.000000 0.000000 0.000000
outer loop
vertex 18.750000 2.562500 0.312500
vertex 18.750000 2.750000 0.312500
vertex 18.750000 2.562500 1.030762
endloop
endfacet
facet normal 1.000000 0.000000 0.000000
outer loop
vertex 18.750000 2.375000 1.030762
vertex 18.750000 2.187500 1.030762
vertex 18.750000 2.187500 0.312500
endloop
endfacet
facet normal 1.000000 0.000000 0.000000
outer loop
vertex 18.750000 2.187500 1.030762
vertex 18.750000 2.000000 1.030762
vertex 18.750000 2.000000 0.312500
endloop
endfacet
facet normal 1.000000 0.000000 0.000000
outer loop
vertex 18.750000 2.187500 0.312500
vertex 18.750000 2.375000 0.312500
vertex 18.750000 2.375000 1.030762
endloop
endfacet
facet normal 1.000000 0.000000 0.000000
outer loop
vertex 18.750000 2.375000 0.312500
vertex 18.750000 2.562500 0.312500
vertex 18.750000 2.375000 1.030762
endloop
endfacet
facet normal 1.000000 0.000000 0.000000
outer loop
vertex 18.750000 3.312500 1.030762
vertex 18.750000 3.312500 1.749024
vertex 18.750000 3.125000 1.030762
endloop
endfacet
facet normal 1.000000 0.000000 0.000000
outer loop
vertex 18.750000 8.000000 1.030762
vertex 18.750000 8.000000 1.749020
vertex 18.750000 7.812500 1.030762
endloop
endfacet
facet normal 1.000000 0.000000 0.000000
outer loop
vertex 18.750000 8.000000 1.749020
vertex 18.750000 7.812500 1.749020
vertex 18.750000 7.812500 1.030762
endloop
endfacet
facet normal 1.000000 0.000000 0.000000
outer loop
vertex 18.750000 7.812500 1.749020
vertex 18.750000 7.625000 1.749020
vertex 18.750000 7.625000 1.030762
endloop
endfacet
facet normal 1.000000 0.000000 0.000000
outer loop
vertex 18.750000 7.625000 1.749020
vertex 18.750000 7.437500 1.749020
vertex 18.750000 7.625000 1.030762
endloop
endfacet
facet normal 1.000000 0.000000 0.000000
outer loop
vertex 18.750000 7.250000 1.749021
vertex 18.750000 7.062500 1.749021
vertex 18.750000 7.250000 1.030762
endloop
endfacet
facet normal 1.000000 0.000000 0.000000
outer loop
vertex 18.750000 7.062500 1.749021
vertex 18.750000 6.875000 1.749021
vertex 18.750000 7.062500 1.030762
endloop
endfacet
facet normal 1.000000 0.000009 0.000000
outer loop
vertex 18.750000 7.437500 1.030762
vertex 18.750000 7.437500 1.749020
vertex 18.750000 7.250000 1.749021
endloop
endfacet
facet normal 1.000000 0.000000 0.000000
outer loop
vertex 18.750000 7.625000 1.030762
vertex 18.750000 7.437500 1.749020
vertex 18.750000 7.437500 1.030762
endloop
endfacet
facet normal 1.000000 0.000000 0.000000
outer loop
vertex 18.750000 7.250000 1.030762
vertex 18.750000 7.437500 1.030762
vertex 18.750000 7.250000 1.749021
endloop
endfacet
facet normal 1.000000 0.000000 0.000000
outer loop
vertex 18.750000 7.250000 1.030762
vertex 18.750000 7.062500 1.749021
vertex 18.750000 7.062500 1.030762
endloop
endfacet
facet normal 1.000000 0.000000 0.000000
outer loop
vertex 18.750000 7.625000 1.030762
vertex 18.750000 7.812500 1.030762
vertex 18.750000 7.812500 1.749020
endloop
endfacet
facet normal 1.000000 0.000000 0.000000
outer loop
vertex 18.750000 6.875000 1.749021
vertex 18.750000 6.687500 1.749021
vertex 18.750000 6.875000 1.030762
endloop
endfacet
facet normal 1.000000 0.000000 0.000000
outer loop
vertex 18.750000 6.687500 1.749021
vertex 18.750000 6.500000 1.749021
vertex 18.750000 6.687500 1.030762
endloop
endfacet
facet normal 1.000000 0.000000 0.000000
outer loop
vertex 18.750000 6.875000 1.030762
vertex 18.750000 6.687500 1.749021
vertex 18.750000 6.687500 1.030762
endloop
endfacet
facet normal 1.000000 -0.000014 0.000000
outer loop
vertex 18.750000 6.312500 1.749021
vertex 18.750000 6.125000 1.749022
vertex 18.750000 6.125000 1.030762
endloop
endfacet
facet normal 1.000000 0.000014 0.000000
outer loop
vertex 18.750000 6.125000 1.749022
vertex 18.750000 5.937500 1.749022
vertex 18.750000 6.125000 1.030762
endloop
endfacet
facet normal 1.000000 0.000014 0.000000
outer loop
vertex 18.750000 6.500000 1.749021
vertex 18.750000 6.312500 1.749021
vertex 18.750000 6.500000 1.030762
endloop
endfacet
facet normal 1.000000 0.000000 0.000000
outer loop
vertex 18.750000 6.875000 1.030762
vertex 18.750000 7.062500 1.030762
vertex 18.750000 6.875000 1.749021
endloop
endfacet
facet normal 1.000000 0.000000 0.000000
outer loop
vertex 18.750000 5.937500 1.749022
vertex 18.750000 5.750000 1.749022
vertex 18.750000 5.937500 1.030762
endloop
endfacet
facet normal 1.000000 0.000000 0.000000
outer loop
vertex 18.750000 6.125000 1.030762
vertex 18.750000 5.937500 1.749022
vertex 18.750000 5.937500 1.030762
endloop
endfacet
facet normal 1.000000 0.000000 0.000000
outer loop
vertex 18.750000 6.500000 1.030762
vertex 18.750000 6.687500 1.030762
vertex 18.750000 6.500000 1.749021
endloop
endfacet
facet normal 1.000000 0.000000 0.000000
outer loop
vertex 18.750000 5.750000 1.749022
vertex 18.750000 5.562500 1.749022
vertex 18.750000 5.750000 1.030762
endloop
endfacet
facet normal 1.000000 -0.000014 0.000000
outer loop
vertex 18.750000 5.375000 1.749022
vertex 18.750000 5.187500 1.749022
vertex 18.750000 5.375000 1.030762
endloop
endfacet
facet normal 1.000000 0.000014 0.000000
outer loop
vertex 18.750000 5.187500 1.749022
vertex 18.750000 5.000000 1.749022
vertex 18.750000 5.187500 1.030762
endloop
endfacet
facet normal 1.000000 0.000000 0.000000
outer loop
vertex 18.750000 5.375000 1.030762
vertex 18.750000 5.187500 1.749022
vertex 18.750000 5.187500 1.030762
endloop
endfacet
facet normal 1.000000 0.000014 0.000000
outer loop
vertex 18.750000 5.562500 1.749022
vertex 18.750000 5.375000 1.749022
vertex 18.750000 5.562500 1.030762
endloop
endfacet
facet normal 1.000000 0.000000 0.000000
outer loop
vertex 18.750000 6.125000 1.030762
vertex 18.750000 6.312500 1.030762
vertex 18.750000 6.312500 1.749021
endloop
endfacet
facet normal 1.000000 0.000000 0.000000
outer loop
vertex 18.750000 5.750000 1.749022
vertex 18.750000 5.750000 1.030762
vertex 18.750000 5.937500 1.030762
endloop
endfacet
facet normal 1.000000 0.000000 0.000000
outer loop
vertex 18.750000 6.312500 1.030762
vertex 18.750000 6.500000 1.030762
vertex 18.750000 6.312500 1.749021
endloop
endfacet
facet normal 1.000000 0.000000 0.000000
outer loop
vertex 18.750000 5.000000 1.749022
vertex 18.750000 4.812500 1.749022
vertex 18.750000 5.000000 1.030762
endloop
endfacet
facet normal 1.000000 0.000000 0.000000
outer loop
vertex 18.750000 5.562500 1.030762
vertex 18.750000 5.750000 1.030762
vertex 18.750000 5.562500 1.749022
endloop
endfacet
facet normal 1.000000 0.000000 0.000000
outer loop
vertex 18.750000 5.562500 1.030762
vertex 18.750000 5.375000 1.749022
vertex 18.750000 5.375000 1.030762
endloop
endfacet
facet normal 1.000000 0.000000 0.000000
outer loop
vertex 18.750000 4.812500 1.749022
vertex 18.750000 4.625000 1.749023
vertex 18.750000 4.812500 1.030762
endloop
endfacet
facet normal 1.000000 0.000000 0.000000
outer loop
vertex 18.750000 4.625000 1.749023
vertex 18.750000 4.437500 1.749023
vertex 18.750000 4.625000 1.030762
endloop
endfacet
facet normal 1.000000 0.000000 0.000000
outer loop
vertex 18.750000 5.000000 1.749022
vertex 18.750000 5.000000 1.030762
vertex 18.750000 5.187500 1.030762
endloop
endfacet
facet normal 1.000000 0.000000 0.000000
outer loop
vertex 18.750000 5.000000 1.030762
vertex 18.750000 4.812500 1.749022
vertex 18.750000 4.812500 1.030762
endloop
endfacet
facet normal 1.000000 0.000014 0.000000
outer loop
vertex 18.750000 4.437500 1.749023
vertex 18.750000 4.250000 1.749023
vertex 18.750000 4.437500 1.030762
endloop
endfacet
facet normal 1.000000 0.000000 0.000000
outer loop
vertex 18.750000 4.250000 1.749023
vertex 18.750000 4.062500 1.749023
vertex 18.750000 4.250000 1.030762
endloop
endfacet
facet normal 1.000000 0.000000 0.000000
outer loop
vertex 18.750000 4.062500 1.749023
vertex 18.750000 3.875000 1.749023
vertex 18.750000 4.062500 1.030762
endloop
endfacet
facet normal 1.000000 0.000000 0.000000
outer loop
vertex 18.750000 4.625000 1.749023
vertex 18.750000 4.625000 1.030762
vertex 18.750000 4.812500 1.030762
endloop
endfacet
facet normal 1.000000 0.000000 0.000000
outer loop
vertex 18.750000 3.875000 1.749023
vertex 18.750000 3.687500 1.749023
vertex 18.750000 3.875000 1.030762
endloop
endfacet
facet normal 1.000000 0.000000 0.000000
outer loop
vertex 18.750000 3.687500 1.749023
vertex 18.750000 3.500000 1.749024
vertex 18.750000 3.687500 1.030762
endloop
endfacet
facet normal 1.000000 0.000000 0.000000
outer loop
vertex 18.750000 3.875000 1.030762
vertex 18.750000 3.687500 1.749023
vertex 18.750000 3.687500 1.030762
endloop
endfacet
facet normal 1.000000 0.000000 0.000000
outer loop
vertex 18.750000 4.625000 1.030762
vertex 18.750000 4.437500 1.749023
vertex 18.750000 4.437500 1.030762
endloop
endfacet
facet normal 1.000000 0.000014 0.000000
outer loop
vertex 18.750000 3.500000 1.749024
vertex 18.750000 3.312500 1.749024
vertex 18.750000 3.500000 1.030762
endloop
endfacet
facet normal 1.000000 -0.000014 0.000000
outer loop
vertex 18.750000 3.312500 1.749024
vertex 18.750000 3.125000 1.749024
vertex 18.750000 3.125000 1.030762
endloop
endfacet
facet normal 1.000000 0.000014 0.000000
outer loop
vertex 18.750000 3.125000 1.749024
vertex 18.750000 2.937500 1.749024
vertex 18.750000 3.125000 1.030762
endloop
endfacet
facet normal 1.000000 0.000000 0.000000
outer loop
vertex 18.750000 2.750000 1.749024
vertex 18.750000 2.562500 1.749024
vertex 18.750000 2.750000 1.030762
endloop
endfacet
facet normal 1.000000 0.000014 0.000000
outer loop
vertex 18.750000 2.562500 1.749024
vertex 18.750000 2.375000 1.749024
vertex 18.750000 2.562500 1.030762
endloop
endfacet
facet normal 1.000000 -0.000005 0.000000
outer loop
vertex 18.750000 2.937500 1.030762
vertex 18.750000 2.937500 1.749024
vertex 18.750000 2.750000 1.749024
endloop
endfacet
facet normal 1.000000 0.000000 0.000000
outer loop
vertex 18.750000 3.125000 1.030762
vertex 18.750000 2.937500 1.749024
vertex 18.750000 2.937500 1.030762
endloop
endfacet
facet normal 1.000000 0.000000 0.000000
outer loop
vertex 18.750000 4.437500 1.030762
vertex 18.750000 4.250000 1.749023
vertex 18.750000 4.250000 1.030762
endloop
endfacet
facet normal 1.000000 0.000000 0.000000
outer loop
vertex 18.750000 4.062500 1.030762
vertex 18.750000 4.250000 1.030762
vertex 18.750000 4.062500 1.749023
endloop
endfacet
facet normal 1.000000 0.000000 0.000000
outer loop
vertex 18.750000 3.875000 1.749023
vertex 18.750000 3.875000 1.030762
vertex 18.750000 4.062500 1.030762
endloop
endfacet
facet normal 1.000000 -0.000014 0.000000
outer loop
vertex 18.750000 2.375000 1.749024
vertex 18.750000 2.187500 1.749025
vertex 18.750000 2.375000 1.030762
endloop
endfacet
facet normal 1.000000 0.000014 0.000000
outer loop
vertex 18.750000 2.187500 1.749025
vertex 18.750000 2.000000 1.749025
vertex 18.750000 2.187500 1.030762
endloop
endfacet
facet normal 1.000000 0.000000 0.000000
outer loop
vertex 18.750000 2.375000 1.030762
vertex 18.750000 2.187500 1.749025
vertex 18.750000 2.187500 1.030762
endloop
endfacet
facet normal 1.000000 0.000000 0.000000
outer loop
vertex 18.750000 2.000000 1.749025
vertex 18.750000 2.000000 1.030762
vertex 18.750000 2.187500 1.030762
endloop
endfacet
facet normal 1.000000 0.000000 0.000000
outer loop
vertex 18.750000 2.375000 1.030762
vertex 18.750000 2.562500 1.030762
vertex 18.750000 2.375000 1.749024
endloop
endfacet
facet normal 1.000000 0.000000 0.000000
outer loop
vertex 18.750000 2.562500 1.030762
vertex 18.750000 2.750000 1.030762
vertex 18.750000 2.562500 1.749024
endloop
endfacet
facet normal 1.000000 0.000000 0.000000
outer loop
vertex 18.750000 2.937500 1.030762
vertex 18.750000 2.750000 1.749024
vertex 18.750000 2.750000 1.030762
endloop
endfacet
facet normal 1.000000 0.000000 0.000000
outer loop
vertex 18.750000 3.500000 1.030762
vertex 18.750000 3.687500 1.030762
vertex 18.750000 3.500000 1.749024
endloop
endfacet
facet normal 1.000000 0.000000 0.000000
outer loop
vertex 18.750000 3.500000 1.030762
vertex 18.750000 3.312500 1.749024
vertex 18.750000 3.312500 1.030762
endloop
endfacet
facet normal -0.009998 -0.000001 -0.999950
outer loop
vertex 19.531250 4.062500 1.741211
vertex 20.312500 3.875000 1.733400
vertex 19.531250 3.875000 1.741212
endloop
endfacet
facet normal -0.009998 0.000000 -0.999950
outer loop
vertex 20.312500 4.625000 1.733400
vertex 20.312500 4.437500 1.733400
vertex 19.531250 4.625000 1.741211
endloop
endfacet
facet normal -0.009999 0.000000 -0.999950
outer loop
vertex 20.312500 4.437500 1.733400
vertex 20.312500 4.250000 1.733400
vertex 19.531250 4.437500 1.741211
endloop
endfacet
facet normal -0.009997 0.000000 -0.999950
outer loop
vertex 20.312500 6.125000 1.733400
vertex 19.531250 6.125000 1.741211
vertex 19.531250 6.312500 1.741211
endloop
endfacet
facet normal -0.009999 0.000000 -0.999950
outer loop
vertex 20.312500 4.250000 1.733400
vertex 20.312500 4.062500 1.733400
vertex 19.531250 4.250000 1.741211
endloop
endfacet
facet normal -0.009999 0.000000 -0.999950
outer loop
vertex 20.312500 4.062500 1.733400
vertex 20.312500 3.875000 1.733400
vertex 19.531250 4.062500 1.741211
endloop
endfacet
facet normal -0.009998 0.000000 -0.999950
outer loop
vertex 19.531250 5.937500 1.741211
vertex 20.312500 5.937500 1.733400
vertex 20.312500 5.750000 1.733400
endloop
endfacet
facet normal -0.009999 0.000000 -0.999950
outer loop
vertex 20.312500 3.687500 1.733400
vertex 20.312500 3.500000 1.733400
vertex 19.531250 3.687500 1.741212
endloop
endfacet
facet normal -0.009999 0.000000 -0.999950
outer loop
vertex 20.312500 3.500000 1.733400
vertex 20.312500 3.312500 1.733400
vertex 19.531250 3.500000 1.741212
endloop
endfacet
facet normal -0.009998 0.000000 -0.999950
outer loop
vertex 20.312500 5.562500 1.733400
vertex 19.531250 5.750000 1.741211
vertex 20.312500 5.750000 1.733400
endloop
endfacet
facet normal -0.009997 0.000000 -0.999950
outer loop
vertex 19.531250 6.125000 1.741211
vertex 20.312500 6.125000 1.733400
vertex 20.312500 5.937500 1.733400
endloop
endfacet
facet normal -0.009997 -0.000001 -0.999950
outer loop
vertex 20.312500 5.937500 1.733400
vertex 19.531250 5.937500 1.741211
vertex 19.531250 6.125000 1.741211
endloop
endfacet
facet normal -0.009998 0.000000 -0.999950
outer loop
vertex 19.531250 5.750000 1.741211
vertex 20.312500 5.562500 1.733400
vertex 19.531250 5.562500 1.741211
endloop
endfacet
facet normal -0.009999 0.000000 -0.999950
outer loop
vertex 20.312500 3.312500 1.733400
vertex 20.312500 3.125000 1.733400
vertex 19.531250 3.312500 1.741212
endloop
endfacet
facet normal -0.009998 0.000000 -0.999950
outer loop
vertex 19.531250 5.562500 1.741211
vertex 20.312500 5.562500 1.733400
vertex 20.312500 5.375000 1.733400
endloop
endfacet
facet normal -0.009998 0.000000 -0.999950
outer loop
vertex 20.312500 4.812500 1.733400
vertex 20.312500 4.625000 1.733400
vertex 19.531250 4.812500 1.741211
endloop
endfacet
facet normal -0.009999 0.000000 -0.999950
outer loop
vertex 20.312500 3.125000 1.733400
vertex 20.312500 2.937500 1.733400
vertex 19.531250 3.125000 1.741212
endloop
endfacet
facet normal -0.009998 -0.000001 -0.999950
outer loop
vertex 19.531250 5.562500 1.741211
vertex 20.312500 5.375000 1.733400
vertex 19.531250 5.375000 1.741211
endloop
endfacet
facet normal -0.009998 0.000000 -0.999950
outer loop
vertex 20.312500 5.000000 1.733400
vertex 20.312500 4.812500 1.733400
vertex 19.531250 5.000000 1.741211
endloop
endfacet
facet normal -0.009997 0.000000 -0.999950
outer loop
vertex 20.312500 6.125000 1.733400
vertex 19.531250 6.312500 1.741211
vertex 20.312500 6.312500 1.733400
endloop
endfacet
facet normal -0.009999 0.000000 -0.999950
outer loop
vertex 20.312500 2.937500 1.733400
vertex 20.312500 2.750000 1.733400
vertex 19.531250 2.937500 1.741212
endloop
endfacet
facet normal -0.009998 0.000000 -0.999950
outer loop
vertex 20.312500 5.187500 1.733400
vertex 20.312500 5.000000 1.733400
vertex 19.531250 5.187500 1.741211
endloop
endfacet
facet normal -0.009997 -0.000001 -0.999950
outer loop
vertex 20.312500 6.312500 1.733400
vertex 19.531250 6.312500 1.741211
vertex 19.531250 6.500000 1.741211
endloop
endfacet
facet normal -0.009997 0.000000 -0.999950
outer loop
vertex 20.312500 6.312500 1.733400
vertex 19.531250 6.500000 1.741211
vertex 20.312500 6.500000 1.733400
endloop
endfacet
facet normal -0.009998 0.000000 -0.999950
outer loop
vertex 19.531250 5.375000 1.741211
vertex 20.312500 5.375000 1.733400
vertex 20.312500 5.187500 1.733400
endloop
endfacet
facet normal -0.009999 0.000000 -0.999950
outer loop
vertex 20.312500 2.750000 1.733400
vertex 20.312500 2.562500 1.733400
vertex 19.531250 2.750000 1.741212
endloop
endfacet
facet normal -0.009997 -0.000001 -0.999950
outer loop
vertex 20.312500 6.500000 1.733400
vertex 19.531250 6.500000 1.741211
vertex 19.531250 6.687500 1.741210
endloop
endfacet
facet normal -0.009999 -0.000001 -0.999950
outer loop
vertex 19.531250 5.375000 1.741211
vertex 20.312500 5.187500 1.733400
vertex 19.531250 5.187500 1.741211
endloop
endfacet
facet normal -0.009999 0.000000 -0.999950
outer loop
vertex 20.312500 2.562500 1.733400
vertex 20.312500 2.375000 1.733400
vertex 19.531250 2.562500 1.741212
endloop
endfacet
facet normal -0.009999 0.000000 -0.999950
outer loop
vertex 20.312500 2.375000 1.733400
vertex 20.312500 2.187500 1.733400
vertex 19.531250 2.375000 1.741212
endloop
endfacet
facet normal -0.009999 0.000000 -0.999950
outer loop
vertex 19.531250 5.187500 1.741211
vertex 20.312500 5.000000 1.733400
vertex 19.531250 5.000000 1.741211
endloop
endfacet
facet normal -0.009997 0.000000 -0.999950
outer loop
vertex 20.312500 6.500000 1.733400
vertex 19.531250 6.687500 1.741210
vertex 20.312500 6.687500 1.733400
endloop
endfacet
facet normal -0.009999 0.000000 -0.999950
outer loop
vertex 20.312500 3.875000 1.733400
vertex 20.312500 3.687500 1.733400
vertex 19.531250 3.875000 1.741212
endloop
endfacet
facet normal -0.009998 -0.000001 -0.999950
outer loop
vertex 20.312500 5.750000 1.733400
vertex 19.531250 5.750000 1.741211
vertex 19.531250 5.937500 1.741211
endloop
endfacet
facet normal -0.009997 -0.000001 -0.999950
outer loop
vertex 20.312500 6.875000 1.733400
vertex 19.531250 6.875000 1.741210
vertex 19.531250 7.062500 1.741210
endloop
endfacet
facet normal -0.009997 0.000000 -0.999950
outer loop
vertex 19.531250 6.875000 1.741210
vertex 20.312500 6.875000 1.733400
vertex 20.312500 6.687500 1.733400
endloop
endfacet
facet normal -0.009997 0.000000 -0.999950
outer loop
vertex 20.312500 6.687500 1.733400
vertex 19.531250 6.687500 1.741210
vertex 19.531250 6.875000 1.741210
endloop
endfacet
facet normal -0.009997 0.000000 -0.999950
outer loop
vertex 20.312500 7.062500 1.733400
vertex 19.531250 7.250000 1.741210
vertex 20.312500 7.250000 1.733400
endloop
endfacet
facet normal -0.009997 0.000000 -0.999950
outer loop
vertex 20.312500 7.062500 1.733400
vertex 20.312500 6.875000 1.733400
vertex 19.531250 7.062500 1.741210
endloop
endfacet
facet normal -0.009997 0.000000 -0.999950
outer loop
vertex 19.531250 7.437500 1.741210
vertex 20.312500 7.250000 1.733400
vertex 19.531250 7.250000 1.741210
endloop
endfacet
facet normal -0.009997 0.000000 -0.999950
outer loop
vertex 20.312500 7.250000 1.733400
vertex 19.531250 7.437500 1.741210
vertex 20.312500 7.437500 1.733400
endloop
endfacet
facet normal -0.009997 -0.000001 -0.999950
outer loop
vertex 19.531250 7.250000 1.741210
vertex 20.312500 7.062500 1.733400
vertex 19.531250 7.062500 1.741210
endloop
endfacet
facet normal -0.009997 0.000000 -0.999950
outer loop
vertex 20.312500 7.625000 1.733400
vertex 20.312500 7.437500 1.733400
vertex 19.531250 7.625000 1.741210
endloop
endfacet
facet normal -0.009996 -0.000001 -0.999950
outer loop
vertex 20.312500 7.625000 1.733400
vertex 19.531250 7.625000 1.741210
vertex 19.531250 7.812500 1.741210
endloop
endfacet
facet normal -0.009997 -0.000001 -0.999950
outer loop
vertex 20.312500 7.437500 1.733400
vertex 19.531250 7.437500 1.741210
vertex 19.531250 7.625000 1.741210
endloop
endfacet
facet normal -0.009997 0.000000 -0.999950
outer loop
vertex 20.312500 8.000000 1.733400
vertex 20.312500 7.812500 1.733400
vertex 19.531250 8.000000 1.741210
endloop
endfacet
facet normal -0.009997 0.000000 -0.999950
outer loop
vertex 20.312500 7.812500 1.733400
vertex 20.312500 7.625000 1.733400
vertex 19.531250 7.812500 1.741210
endloop
endfacet
facet normal -0.009996 0.000000 -0.999950
outer loop
vertex 19.531250 8.000000 1.741210
vertex 20.312500 7.812500 1.733400
vertex 19.531250 7.812500 1.741210
endloop
endfacet
facet normal -0.009999 0.000000 -0.999950
outer loop
vertex 20.312500 2.187500 1.733400
vertex 20.312500 2.000000 1.733400
vertex 19.531250 2.187500 1.741212
endloop
endfacet
facet normal -0.009999 -0.000001 -0.999950
outer loop
vertex 20.312500 2.000000 1.733400
vertex 19.531250 2.000000 1.741212
vertex 19.531250 2.187500 1.741212
endloop
endfacet
facet normal -0.009999 -0.000001 -0.999950
outer loop
vertex 19.531250 4.812500 1.741211
vertex 20.312500 4.625000 1.733400
vertex 19.531250 4.625000 1.741211
endloop
endfacet
facet normal -0.009999 0.000000 -0.999950
outer loop
vertex 19.531250 5.000000 1.741211
vertex 20.312500 4.812500 1.733400
vertex 19.531250 4.812500 1.741211
endloop
endfacet
facet normal -0.009999 -0.000001 -0.999950
outer loop
vertex 19.531250 2.375000 1.741212
vertex 19.531250 2.562500 1.741212
vertex 20.312500 2.375000 1.733400
endloop
endfacet
facet normal -0.009999 -0.000001 -0.999950
outer loop
vertex 19.531250 2.562500 1.741212
vertex 19.531250 2.750000 1.741212
vertex 20.312500 2.562500 1.733400
endloop
endfacet
facet normal -0.009999 0.000000 -0.999950
outer loop
vertex 20.312500 2.187500 1.733400
vertex 19.531250 2.187500 1.741212
vertex 19.531250 2.375000 1.741212
endloop
endfacet
facet normal -0.009999 -0.000001 -0.999950
outer loop
vertex 20.312500 4.437500 1.733400
vertex 19.531250 4.437500 1.741211
vertex 19.531250 4.625000 1.741211
endloop
endfacet
facet normal -0.009999 -0.000001 -0.999950
outer loop
vertex 19.531250 2.937500 1.741212
vertex 19.531250 3.125000 1.741212
vertex 20.312500 2.937500 1.733400
endloop
endfacet
facet normal -0.009999 -0.000001 -0.999950
outer loop
vertex 19.531250 3.125000 1.741212
vertex 19.531250 3.312500 1.741212
vertex 20.312500 3.125000 1.733400
endloop
endfacet
facet normal -0.009999 0.000000 -0.999950
outer loop
vertex 19.531250 2.750000 1.741212
vertex 19.531250 2.937500 1.741212
vertex 20.312500 2.750000 1.733400
endloop
endfacet
facet normal -0.009998 0.000000 -0.999950
outer loop
vertex 19.531250 4.437500 1.741211
vertex 20.312500 4.250000 1.733400
vertex 19.531250 4.250000 1.741211
endloop
endfacet
facet normal -0.009999 0.000000 -0.999950
outer loop
vertex 19.531250 3.500000 1.741212
vertex 19.531250 3.687500 1.741212
vertex 20.312500 3.500000 1.733400
endloop
endfacet
facet normal -0.009999 -0.000001 -0.999950
outer loop
vertex 19.531250 3.687500 1.741212
vertex 19.531250 3.875000 1.741212
vertex 20.312500 3.687500 1.733400
endloop
endfacet
facet normal -0.009999 0.000000 -0.999950
outer loop
vertex 19.531250 3.312500 1.741212
vertex 19.531250 3.500000 1.741212
vertex 20.312500 3.312500 1.733400
endloop
endfacet
facet normal -0.009998 0.000000 -0.999950
outer loop
vertex 19.531250 4.250000 1.741211
vertex 20.312500 4.062500 1.733400
vertex 19.531250 4.062500 1.741211
endloop
endfacet
facet normal -0.009998 0.000000 -0.999950
outer loop
vertex 19.531250 4.250000 1.741211
vertex 19.531250 4.062500 1.741211
vertex 18.750000 4.250000 1.749023
endloop
endfacet
facet normal -0.009996 0.000000 -0.999950
outer loop
vertex 18.750000 8.000000 1.749020
vertex 19.531250 8.000000 1.741210
vertex 19.531250 7.812500 1.741210
endloop
endfacet
facet normal -0.009997 -0.000001 -0.999950
outer loop
vertex 19.531250 7.812500 1.741210
vertex 19.531250 7.625000 1.741210
vertex 18.750000 7.625000 1.749020
endloop
endfacet
facet normal -0.009996 -0.000001 -0.999950
outer loop
vertex 19.531250 7.625000 1.741210
vertex 19.531250 7.437500 1.741210
vertex 18.750000 7.625000 1.749020
endloop
endfacet
facet normal -0.009997 0.000000 -0.999950
outer loop
vertex 19.531250 7.437500 1.741210
vertex 19.531250 7.250000 1.741210
vertex 18.750000 7.250000 1.749021
endloop
endfacet
facet normal -0.009997 -0.000001 -0.999950
outer loop
vertex 19.531250 7.250000 1.741210
vertex 19.531250 7.062500 1.741210
vertex 18.750000 7.250000 1.749021
endloop
endfacet
facet normal -0.009997 0.000000 -0.999950
outer loop
vertex 19.531250 6.875000 1.741210
vertex 19.531250 6.687500 1.741210
vertex 18.750000 6.687500 1.749021
endloop
endfacet
facet normal -0.009997 -0.000001 -0.999950
outer loop
vertex 19.531250 6.687500 1.741210
vertex 19.531250 6.500000 1.741211
vertex 18.750000 6.687500 1.749021
endloop
endfacet
facet normal -0.009997 -0.000001 -0.999950
outer loop
vertex 19.531250 7.062500 1.741210
vertex 19.531250 6.875000 1.741210
vertex 18.750000 7.062500 1.749021
endloop
endfacet
facet normal -0.009996 -0.000001 -0.999950
outer loop
vertex 18.750000 7.250000 1.749021
vertex 19.531250 7.062500 1.741210
vertex 18.750000 7.062500 1.749021
endloop
endfacet
facet normal -0.009997 -0.000001 -0.999950
outer loop
vertex 18.750000 8.000000 1.749020
vertex 19.531250 7.812500 1.741210
vertex 18.750000 7.812500 1.749020
endloop
endfacet
facet normal -0.009997 -0.000001 -0.999950
outer loop
vertex 18.750000 7.625000 1.749020
vertex 18.750000 7.812500 1.749020
vertex 19.531250 7.812500 1.741210
endloop
endfacet
facet normal -0.009997 -0.000001 -0.999950
outer loop
vertex 18.750000 7.250000 1.749021
vertex 18.750000 7.437500 1.749020
vertex 19.531250 7.437500 1.741210
endloop
endfacet
facet normal -0.009996 -0.000001 -0.999950
outer loop
vertex 18.750000 7.437500 1.749020
vertex 18.750000 7.625000 1.749020
vertex 19.531250 7.437500 1.741210
endloop
endfacet
facet normal -0.009997 -0.000001 -0.999950
outer loop
vertex 18.750000 6.687500 1.749021
vertex 18.750000 6.875000 1.749021
vertex 19.531250 6.875000 1.741210
endloop
endfacet
facet normal -0.009997 -0.000001 -0.999950
outer loop
vertex 18.750000 6.875000 1.749021
vertex 18.750000 7.062500 1.749021
vertex 19.531250 6.875000 1.741210
endloop
endfacet
facet normal -0.009997 -0.000001 -0.999950
outer loop
vertex 18.750000 6.125000 1.749022
vertex 18.750000 6.312500 1.749021
vertex 19.531250 6.312500 1.741211
endloop
endfacet
facet normal -0.009997 -0.000001 -0.999950
outer loop
vertex 18.750000 6.312500 1.749021
vertex 18.750000 6.500000 1.749021
vertex 19.531250 6.312500 1.741211
endloop
endfacet
facet normal -0.009997 -0.000001 -0.999950
outer loop
vertex 18.750000 6.500000 1.749021
vertex 18.750000 6.687500 1.749021
vertex 19.531250 6.500000 1.741211
endloop
endfacet
facet normal -0.009997 -0.000001 -0.999950
outer loop
vertex 19.531250 6.312500 1.741211
vertex 18.750000 6.500000 1.749021
vertex 19.531250 6.500000 1.741211
endloop
endfacet
facet normal -0.009998 -0.000001 -0.999950
outer loop
vertex 18.750000 5.750000 1.749022
vertex 18.750000 5.937500 1.749022
vertex 19.531250 5.937500 1.741211
endloop
endfacet
facet normal -0.009997 -0.000001 -0.999950
outer loop
vertex 18.750000 5.937500 1.749022
vertex 18.750000 6.125000 1.749022
vertex 19.531250 5.937500 1.741211
endloop
endfacet
facet normal -0.009997 -0.000001 -0.999950
outer loop
vertex 18.750000 5.187500 1.749022
vertex 18.750000 5.375000 1.749022
vertex 19.531250 5.375000 1.741211
endloop
endfacet
facet normal -0.009997 -0.000001 -0.999950
outer loop
vertex 18.750000 5.375000 1.749022
vertex 18.750000 5.562500 1.749022
vertex 19.531250 5.375000 1.741211
endloop
endfacet
facet normal -0.009997 -0.000001 -0.999950
outer loop
vertex 18.750000 5.562500 1.749022
vertex 18.750000 5.750000 1.749022
vertex 19.531250 5.562500 1.741211
endloop
endfacet
facet normal -0.009998 -0.000001 -0.999950
outer loop
vertex 19.531250 5.375000 1.741211
vertex 18.750000 5.562500 1.749022
vertex 19.531250 5.562500 1.741211
endloop
endfacet
facet normal -0.009998 -0.000001 -0.999950
outer loop
vertex 18.750000 4.625000 1.749023
vertex 18.750000 4.812500 1.749022
vertex 19.531250 4.812500 1.741211
endloop
endfacet
facet normal -0.009998 -0.000001 -0.999950
outer loop
vertex 18.750000 4.812500 1.749022
vertex 18.750000 5.000000 1.749022
vertex 19.531250 4.812500 1.741211
endloop
endfacet
facet normal -0.009997 -0.000001 -0.999950
outer loop
vertex 18.750000 5.000000 1.749022
vertex 18.750000 5.187500 1.749022
vertex 19.531250 5.000000 1.741211
endloop
endfacet
facet normal -0.009997 0.000000 -0.999950
outer loop
vertex 19.531250 4.812500 1.741211
vertex 18.750000 5.000000 1.749022
vertex 19.531250 5.000000 1.741211
endloop
endfacet
facet normal -0.009998 -0.000001 -0.999950
outer loop
vertex 18.750000 4.250000 1.749023
vertex 18.750000 4.437500 1.749023
vertex 19.531250 4.437500 1.741211
endloop
endfacet
facet normal -0.009998 -0.000001 -0.999950
outer loop
vertex 18.750000 4.437500 1.749023
vertex 18.750000 4.625000 1.749023
vertex 19.531250 4.437500 1.741211
endloop
endfacet
facet normal -0.009998 -0.000001 -0.999950
outer loop
vertex 18.750000 3.875000 1.749023
vertex 18.750000 4.062500 1.749023
vertex 19.531250 3.875000 1.741212
endloop
endfacet
facet normal -0.009998 -0.000001 -0.999950
outer loop
vertex 18.750000 4.062500 1.749023
vertex 18.750000 4.250000 1.749023
vertex 19.531250 4.062500 1.741211
endloop
endfacet
facet normal -0.009999 -0.000001 -0.999950
outer loop
vertex 19.531250 3.875000 1.741212
vertex 18.750000 4.062500 1.749023
vertex 19.531250 4.062500 1.741211
endloop
endfacet
facet normal -0.009999 -0.000001 -0.999950
outer loop
vertex 18.750000 3.312500 1.749024
vertex 18.750000 3.500000 1.749024
vertex 19.531250 3.312500 1.741212
endloop
endfacet
facet normal -0.009999 -0.000001 -0.999950
outer loop
vertex 18.750000 3.500000 1.749024
vertex 18.750000 3.687500 1.749023
vertex 19.531250 3.500000 1.741212
endloop
endfacet
facet normal -0.009999 -0.000001 -0.999950
outer loop
vertex 18.750000 3.312500 1.749024
vertex 19.531250 3.312500 1.741212
vertex 18.750000 3.125000 1.749024
endloop
endfacet
facet normal -0.009998 -0.000001 -0.999950
outer loop
vertex 18.750000 3.687500 1.749023
vertex 18.750000 3.875000 1.749023
vertex 19.531250 3.875000 1.741212
endloop
endfacet
facet normal -0.009997 0.000000 -0.999950
outer loop
vertex 18.750000 6.125000 1.749022
vertex 19.531250 6.312500 1.741211
vertex 19.531250 6.125000 1.741211
endloop
endfacet
facet normal -0.009998 -0.000001 -0.999950
outer loop
vertex 18.750000 4.625000 1.749023
vertex 19.531250 4.812500 1.741211
vertex 19.531250 4.625000 1.741211
endloop
endfacet
facet normal -0.009999 0.000000 -0.999950
outer loop
vertex 19.531250 3.312500 1.741212
vertex 18.750000 3.500000 1.749024
vertex 19.531250 3.500000 1.741212
endloop
endfacet
facet normal -0.009997 -0.000001 -0.999950
outer loop
vertex 18.750000 5.750000 1.749022
vertex 19.531250 5.937500 1.741211
vertex 19.531250 5.750000 1.741211
endloop
endfacet
facet normal -0.009998 -0.000001 -0.999950
outer loop
vertex 19.531250 5.937500 1.741211
vertex 18.750000 6.125000 1.749022
vertex 19.531250 6.125000 1.741211
endloop
endfacet
facet normal -0.009997 0.000000 -0.999950
outer loop
vertex 19.531250 5.750000 1.741211
vertex 19.531250 5.562500 1.741211
vertex 18.750000 5.750000 1.749022
endloop
endfacet
facet normal -0.009997 -0.000000 -0.999950
outer loop
vertex 18.750000 5.187500 1.749022
vertex 19.531250 5.375000 1.741211
vertex 19.531250 5.187500 1.741211
endloop
endfacet
facet normal -0.009999 -0.000001 -0.999950
outer loop
vertex 18.750000 2.750000 1.749024
vertex 18.750000 2.937500 1.749024
vertex 19.531250 2.937500 1.741212
endloop
endfacet
facet normal -0.009999 -0.000001 -0.999950
outer loop
vertex 18.750000 2.937500 1.749024
vertex 18.750000 3.125000 1.749024
vertex 19.531250 2.937500 1.741212
endloop
endfacet
facet normal -0.009998 -0.000001 -0.999950
outer loop
vertex 19.531250 4.437500 1.741211
vertex 18.750000 4.625000 1.749023
vertex 19.531250 4.625000 1.741211
endloop
endfacet
facet normal -0.009997 0.000000 -0.999950
outer loop
vertex 19.531250 5.187500 1.741211
vertex 19.531250 5.000000 1.741211
vertex 18.750000 5.187500 1.749022
endloop
endfacet
facet normal -0.009999 -0.000001 -0.999950
outer loop
vertex 18.750000 2.375000 1.749024
vertex 18.750000 2.562500 1.749024
vertex 19.531250 2.375000 1.741212
endloop
endfacet
facet normal -0.009999 -0.000001 -0.999950
outer loop
vertex 18.750000 2.562500 1.749024
vertex 18.750000 2.750000 1.749024
vertex 19.531250 2.562500 1.741212
endloop
endfacet
facet normal -0.009999 -0.000001 -0.999950
outer loop
vertex 18.750000 2.375000 1.749024
vertex 19.531250 2.375000 1.741212
vertex 18.750000 2.187500 1.749025
endloop
endfacet
facet normal -0.009998 0.000000 -0.999950
outer loop
vertex 18.750000 4.250000 1.749023
vertex 19.531250 4.437500 1.741211
vertex 19.531250 4.250000 1.741211
endloop
endfacet
facet normal -0.009999 -0.000001 -0.999950
outer loop
vertex 19.531250 2.375000 1.741212
vertex 18.750000 2.562500 1.749024
vertex 19.531250 2.562500 1.741212
endloop
endfacet
facet normal -0.009999 -0.000001 -0.999950
outer loop
vertex 19.531250 2.000000 1.741212
vertex 18.750000 2.000000 1.749025
vertex 18.750000 2.187500 1.749025
endloop
endfacet
facet normal -0.009999 0.000000 -0.999950
outer loop
vertex 19.531250 2.375000 1.741212
vertex 19.531250 2.187500 1.741212
vertex 18.750000 2.187500 1.749025
endloop
endfacet
facet normal -0.009999 -0.000001 -0.999950
outer loop
vertex 19.531250 2.187500 1.741212
vertex 19.531250 2.000000 1.741212
vertex 18.750000 2.187500 1.749025
endloop
endfacet
facet normal -0.009999 0.000000 -0.999950
outer loop
vertex 19.531250 2.937500 1.741212
vertex 19.531250 2.750000 1.741212
vertex 18.750000 2.750000 1.749024
endloop
endfacet
facet normal -0.009999 -0.000001 -0.999950
outer loop
vertex 19.531250 2.750000 1.741212
vertex 19.531250 2.562500 1.741212
vertex 18.750000 2.750000 1.749024
endloop
endfacet
facet normal -0.009999 -0.000001 -0.999950
outer loop
vertex 19.531250 3.312500 1.741212
vertex 19.531250 3.125000 1.741212
vertex 18.750000 3.125000 1.749024
endloop
endfacet
facet normal -0.009999 -0.000001 -0.999950
outer loop
vertex 19.531250 3.125000 1.741212
vertex 19.531250 2.937500 1.741212
vertex 18.750000 3.125000 1.749024
endloop
endfacet
facet normal -0.009999 -0.000001 -0.999950
outer loop
vertex 19.531250 3.875000 1.741212
vertex 19.531250 3.687500 1.741212
vertex 18.750000 3.687500 1.749023
endloop
endfacet
facet normal -0.009999 0.000000 -0.999950
outer loop
vertex 19.531250 3.687500 1.741212
vertex 19.531250 3.500000 1.741212
vertex 18.750000 3.687500 1.749023
endloop
endfacet
endsolid Obstacle
