solid Air
facet normal -0.009999 0.000000 -0.999950
outer loop
vertex 44.531250 2.000000 5.800786
vertex 43.750000 2.000000 5.808599
vertex 44.531250 8.000000 5.800786
endloop
endfacet
facet normal -0.009999 0.000000 -0.999950
outer loop
vertex 24.218750 8.000000 6.003911
vertex 25.000000 8.000000 5.996099
vertex 24.218750 2.000000 6.003911
endloop
endfacet
facet normal -0.009999 0.000000 -0.999950
outer loop
vertex 25.000000 8.000000 5.996099
vertex 25.781250 8.000000 5.988286
vertex 25.000000 2.000000 5.996099
endloop
endfacet
facet normal -0.009999 0.000000 -0.999950
outer loop
vertex 19.531250 8.000000 6.050786
vertex 18.750000 2.000000 6.058599
vertex 18.750000 8.000000 6.058599
endloop
endfacet
facet normal -0.009999 0.000000 -0.999950
outer loop
vertex 26.562500 8.000000 5.980474
vertex 27.343750 8.000000 5.972661
vertex 26.562500 2.000000 5.980474
endloop
endfacet
facet normal -0.009999 0.000000 -0.999950
outer loop
vertex 27.343750 8.000000 5.972661
vertex 28.125000 8.000000 5.964849
vertex 27.343750 2.000000 5.972661
endloop
endfacet
facet normal -0.009999 0.000000 -0.999950
outer loop
vertex 20.312500 8.000000 6.042974
vertex 20.312500 2.000000 6.042974
vertex 19.531250 2.000000 6.050786
endloop
endfacet
facet normal -0.009999 0.000000 -0.999950
outer loop
vertex 23.437500 8.000000 6.011724
vertex 24.218750 8.000000 6.003911
vertex 23.437500 2.000000 6.011724
endloop
endfacet
facet normal -0.009999 0.000000 -0.999950
outer loop
vertex 18.750000 2.000000 6.058599
vertex 19.531250 8.000000 6.050786
vertex 19.531250 2.000000 6.050786
endloop
endfacet
facet normal -0.009999 0.000000 -0.999950
outer loop
vertex 18.750000 8.000000 6.058599
vertex 18.750000 2.000000 6.058599
vertex 17.968750 2.000000 6.066411
endloop
endfacet
facet normal -0.009999 0.000000 -0.999950
outer loop
vertex 20.312500 2.000000 6.042974
vertex 20.312500 8.000000 6.042974
vertex 21.093750 8.000000 6.035161
endloop
endfacet
facet normal -0.009999 0.000000 -0.999950
outer loop
vertex 28.125000 8.000000 5.964849
vertex 28.906250 8.000000 5.957036
vertex 28.125000 2.000000 5.964849
endloop
endfacet
facet normal -0.009999 0.000000 -0.999950
outer loop
vertex 22.656250 8.000000 6.019536
vertex 23.437500 8.000000 6.011724
vertex 22.656250 2.000000 6.019536
endloop
endfacet
facet normal -0.009999 0.000000 -0.999950
outer loop
vertex 20.312500 2.000000 6.042974
vertex 21.093750 8.000000 6.035161
vertex 21.093750 2.000000 6.035161
endloop
endfacet
facet normal -0.009999 0.000000 -0.999950
outer loop
vertex 28.906250 8.000000 5.957036
vertex 29.687500 8.000000 5.949224
vertex 28.906250 2.000000 5.957036
endloop
endfacet
facet normal -0.009999 0.000000 -0.999950
outer loop
vertex 21.093750 2.000000 6.035161
vertex 21.093750 8.000000 6.035161
vertex 21.875000 8.000000 6.027349
endloop
endfacet
facet normal -0.009999 0.000000 -0.999950
outer loop
vertex 21.875000 8.000000 6.027349
vertex 22.656250 8.000000 6.019536
vertex 21.875000 2.000000 6.027349
endloop
endfacet
facet normal -0.009999 0.000000 -0.999950
outer loop
vertex 18.750000 8.000000 6.058599
vertex 17.968750 2.000000 6.066411
vertex 17.968750 8.000000 6.066411
endloop
endfacet
facet normal -0.009999 0.000000 -0.999950
outer loop
vertex 29.687500 8.000000 5.949224
vertex 30.468750 8.000000 5.941411
vertex 29.687500 2.000000 5.949224
endloop
endfacet
facet normal -0.009999 0.000000 -0.999950
outer loop
vertex 21.093750 2.000000 6.035161
vertex 21.875000 8.000000 6.027349
vertex 21.875000 2.000000 6.027349
endloop
endfacet
facet normal -0.009999 0.000000 -0.999950
outer loop
vertex 17.968750 8.000000 6.066411
vertex 17.968750 2.000000 6.066411
vertex 17.187500 2.000000 6.074224
endloop
endfacet
facet normal -0.009999 0.000000 -0.999950
outer loop
vertex 17.968750 8.000000 6.066411
vertex 17.187500 2.000000 6.074224
vertex 17.187500 8.000000 6.074224
endloop
endfacet
facet normal -0.009999 0.000000 -0.999950
outer loop
vertex 30.468750 8.000000 5.941411
vertex 31.250000 8.000000 5.933599
vertex 30.468750 2.000000 5.941411
endloop
endfacet
facet normal -0.009999 0.000000 -0.999950
outer loop
vertex 17.187500 8.000000 6.074224
vertex 17.187500 2.000000 6.074224
vertex 16.406250 2.000000 6.082036
endloop
endfacet
facet normal -0.009999 0.000000 -0.999950
outer loop
vertex 31.250000 8.000000 5.933599
vertex 32.031250 8.000000 5.925786
vertex 31.250000 2.000000 5.933599
endloop
endfacet
facet normal -0.009999 0.000000 -0.999950
outer loop
vertex 19.531250 8.000000 6.050786
vertex 20.312500 8.000000 6.042974
vertex 19.531250 2.000000 6.050786
endloop
endfacet
facet normal -0.009999 0.000000 -0.999950
outer loop
vertex 21.875000 2.000000 6.027349
vertex 22.656250 8.000000 6.019536
vertex 22.656250 2.000000 6.019536
endloop
endfacet
facet normal -0.009999 0.000000 -0.999950
outer loop
vertex 32.031250 8.000000 5.925786
vertex 32.812500 8.000000 5.917974
vertex 32.031250 2.000000 5.925786
endloop
endfacet
facet normal -0.009999 0.000000 -0.999950
outer loop
vertex 17.187500 8.000000 6.074224
vertex 16.406250 2.000000 6.082036
vertex 16.406250 8.000000 6.082036
endloop
endfacet
facet normal -0.009999 0.000000 -0.999950
outer loop
vertex 32.812500 8.000000 5.917974
vertex 33.593750 8.000000 5.910161
vertex 32.812500 2.000000 5.917974
endloop
endfacet
facet normal -0.009999 0.000000 -0.999950
outer loop
vertex 22.656250 2.000000 6.019536
vertex 23.437500 8.000000 6.011724
vertex 23.437500 2.000000 6.011724
endloop
endfacet
facet normal -0.009999 0.000000 -0.999950
outer loop
vertex 16.406250 8.000000 6.082036
vertex 16.406250 2.000000 6.082036
vertex 15.625000 2.000000 6.089849
endloop
endfacet
facet normal -0.009999 0.000000 -0.999950
outer loop
vertex 16.406250 8.000000 6.082036
vertex 15.625000 2.000000 6.089849
vertex 15.625000 8.000000 6.089849
endloop
endfacet
facet normal -0.009999 0.000000 -0.999950
outer loop
vertex 33.593750 8.000000 5.910161
vertex 34.375000 8.000000 5.902349
vertex 33.593750 2.000000 5.910161
endloop
endfacet
facet normal -0.009999 0.000000 -0.999950
outer loop
vertex 15.625000 8.000000 6.089849
vertex 15.625000 2.000000 6.089849
vertex 14.843750 2.000000 6.097661
endloop
endfacet
facet normal -0.009999 0.000000 -0.999950
outer loop
vertex 34.375000 8.000000 5.902349
vertex 35.156250 8.000000 5.894536
vertex 34.375000 2.000000 5.902349
endloop
endfacet
facet normal -0.009999 0.000000 -0.999950
outer loop
vertex 23.437500 2.000000 6.011724
vertex 24.218750 8.000000 6.003911
vertex 24.218750 2.000000 6.003911
endloop
endfacet
facet normal -0.009999 0.000000 -0.999950
outer loop
vertex 35.156250 8.000000 5.894536
vertex 35.937500 8.000000 5.886724
vertex 35.156250 2.000000 5.894536
endloop
endfacet
facet normal -0.009999 0.000000 -0.999950
outer loop
vertex 15.625000 8.000000 6.089849
vertex 14.843750 2.000000 6.097661
vertex 14.843750 8.000000 6.097661
endloop
endfacet
facet normal -0.009999 0.000000 -0.999950
outer loop
vertex 35.937500 8.000000 5.886724
vertex 36.718750 8.000000 5.878911
vertex 35.937500 2.000000 5.886724
endloop
endfacet
facet normal -0.009999 0.000000 -0.999950
outer loop
vertex 24.218750 2.000000 6.003911
vertex 25.000000 8.000000 5.996099
vertex 25.000000 2.000000 5.996099
endloop
endfacet
facet normal -0.009999 0.000000 -0.999950
outer loop
vertex 14.843750 8.000000 6.097661
vertex 14.843750 2.000000 6.097661
vertex 14.062500 2.000000 6.105474
endloop
endfacet
facet normal -0.009999 0.000000 -0.999950
outer loop
vertex 14.843750 8.000000 6.097661
vertex 14.062500 2.000000 6.105474
vertex 14.062500 8.000000 6.105474
endloop
endfacet
facet normal -0.009999 0.000000 -0.999950
outer loop
vertex 36.718750 8.000000 5.878911
vertex 37.500000 8.000000 5.871099
vertex 36.718750 2.000000 5.878911
endloop
endfacet
facet normal -0.009999 0.000000 -0.999950
outer loop
vertex 14.062500 8.000000 6.105474
vertex 14.062500 2.000000 6.105474
vertex 13.281250 8.000000 6.113286
endloop
endfacet
facet normal -0.009999 0.000000 -0.999950
outer loop
vertex 37.500000 8.000000 5.871099
vertex 38.281250 8.000000 5.863286
vertex 37.500000 2.000000 5.871099
endloop
endfacet
facet normal -0.009999 0.000000 -0.999950
outer loop
vertex 13.281250 8.000000 6.113286
vertex 14.062500 2.000000 6.105474
vertex 13.281250 2.000000 6.113286
endloop
endfacet
facet normal -0.009999 0.000000 -0.999950
outer loop
vertex 25.000000 2.000000 5.996099
vertex 25.781250 8.000000 5.988286
vertex 25.781250 2.000000 5.988286
endloop
endfacet
facet normal -0.009999 0.000000 -0.999950
outer loop
vertex 38.281250 8.000000 5.863286
vertex 39.062500 8.000000 5.855474
vertex 38.281250 2.000000 5.863286
endloop
endfacet
facet normal -0.009999 0.000000 -0.999950
outer loop
vertex 25.781250 2.000000 5.988286
vertex 25.781250 8.000000 5.988286
vertex 26.562500 8.000000 5.980474
endloop
endfacet
facet normal -0.009999 0.000000 -0.999950
outer loop
vertex 12.500000 8.000000 6.121099
vertex 13.281250 8.000000 6.113286
vertex 13.281250 2.000000 6.113286
endloop
endfacet
facet normal -0.009999 0.000000 -0.999950
outer loop
vertex 39.062500 8.000000 5.855474
vertex 39.843750 8.000000 5.847661
vertex 39.062500 2.000000 5.855474
endloop
endfacet
facet normal -0.009999 0.000000 -0.999950
outer loop
vertex 25.781250 2.000000 5.988286
vertex 26.562500 8.000000 5.980474
vertex 26.562500 2.000000 5.980474
endloop
endfacet
facet normal -0.009999 0.000000 -0.999950
outer loop
vertex 11.718750 8.000000 6.128911
vertex 12.500000 8.000000 6.121099
vertex 12.500000 2.000000 6.121099
endloop
endfacet
facet normal -0.009999 0.000000 -0.999950
outer loop
vertex 12.500000 8.000000 6.121099
vertex 13.281250 2.000000 6.113286
vertex 12.500000 2.000000 6.121099
endloop
endfacet
facet normal -0.009999 0.000000 -0.999950
outer loop
vertex 39.843750 8.000000 5.847661
vertex 40.625000 8.000000 5.839849
vertex 39.843750 2.000000 5.847661
endloop
endfacet
facet normal -0.009999 0.000000 -0.999950
outer loop
vertex 10.937500 8.000000 6.136724
vertex 11.718750 8.000000 6.128911
vertex 11.718750 2.000000 6.128911
endloop
endfacet
facet normal -0.009999 0.000000 -0.999950
outer loop
vertex 40.625000 8.000000 5.839849
vertex 41.406250 8.000000 5.832036
vertex 40.625000 2.000000 5.839849
endloop
endfacet
facet normal -0.009999 0.000000 -0.999950
outer loop
vertex 10.156250 8.000000 6.144536
vertex 10.937500 8.000000 6.136724
vertex 10.937500 2.000000 6.136724
endloop
endfacet
facet normal -0.009999 0.000000 -0.999950
outer loop
vertex 11.718750 8.000000 6.128911
vertex 12.500000 2.000000 6.121099
vertex 11.718750 2.000000 6.128911
endloop
endfacet
facet normal -0.009999 0.000000 -0.999950
outer loop
vertex 26.562500 2.000000 5.980474
vertex 27.343750 8.000000 5.972661
vertex 27.343750 2.000000 5.972661
endloop
endfacet
facet normal -0.009999 0.000000 -0.999950
outer loop
vertex 41.406250 8.000000 5.832036
vertex 42.187500 8.000000 5.824224
vertex 41.406250 2.000000 5.832036
endloop
endfacet
facet normal -0.009999 0.000000 -0.999950
outer loop
vertex 9.375000 8.000000 6.152349
vertex 10.156250 8.000000 6.144536
vertex 10.156250 2.000000 6.144536
endloop
endfacet
facet normal -0.009999 0.000000 -0.999950
outer loop
vertex 42.187500 8.000000 5.824224
vertex 42.968750 8.000000 5.816411
vertex 42.187500 2.000000 5.824224
endloop
endfacet
facet normal -0.009999 0.000000 -0.999950
outer loop
vertex 27.343750 2.000000 5.972661
vertex 28.125000 8.000000 5.964849
vertex 28.125000 2.000000 5.964849
endloop
endfacet
facet normal -0.009999 0.000000 -0.999950
outer loop
vertex 8.593750 8.000000 6.160161
vertex 9.375000 8.000000 6.152349
vertex 9.375000 2.000000 6.152349
endloop
endfacet
facet normal -0.009999 0.000000 -0.999950
outer loop
vertex 10.937500 8.000000 6.136724
vertex 11.718750 2.000000 6.128911
vertex 10.937500 2.000000 6.136724
endloop
endfacet
facet normal -0.009999 0.000000 -0.999950
outer loop
vertex 42.968750 8.000000 5.816411
vertex 43.750000 8.000000 5.808599
vertex 42.968750 2.000000 5.816411
endloop
endfacet
facet normal -0.009999 0.000000 -0.999950
outer loop
vertex 7.812500 8.000000 6.167974
vertex 8.593750 8.000000 6.160161
vertex 8.593750 2.000000 6.160161
endloop
endfacet
facet normal -0.009999 0.000000 -0.999950
outer loop
vertex 43.750000 8.000000 5.808599
vertex 44.531250 8.000000 5.800786
vertex 43.750000 2.000000 5.808599
endloop
endfacet
facet normal -0.009999 0.000000 -0.999950
outer loop
vertex 7.031250 8.000000 6.175786
vertex 7.812500 8.000000 6.167974
vertex 7.812500 2.000000 6.167974
endloop
endfacet
facet normal -0.009999 0.000000 -0.999950
outer loop
vertex 10.156250 8.000000 6.144536
vertex 10.937500 2.000000 6.136724
vertex 10.156250 2.000000 6.144536
endloop
endfacet
facet normal -0.009999 0.000000 -0.999950
outer loop
vertex 28.125000 2.000000 5.964849
vertex 28.906250 8.000000 5.957036
vertex 28.906250 2.000000 5.957036
endloop
endfacet
facet normal -0.009999 0.000000 -0.999950
outer loop
vertex 44.531250 8.000000 5.800786
vertex 45.312500 8.000000 5.792974
vertex 44.531250 2.000000 5.800786
endloop
endfacet
facet normal -0.009999 0.000000 -0.999950
outer loop
vertex 6.250000 8.000000 6.183599
vertex 7.031250 8.000000 6.175786
vertex 7.031250 2.000000 6.175786
endloop
endfacet
facet normal -0.009999 0.000000 -0.999950
outer loop
vertex 45.312500 8.000000 5.792974
vertex 46.093750 8.000000 5.785161
vertex 45.312500 2.000000 5.792974
endloop
endfacet
facet normal -0.009999 0.000000 -0.999950
outer loop
vertex 28.906250 2.000000 5.957036
vertex 29.687500 8.000000 5.949224
vertex 29.687500 2.000000 5.949224
endloop
endfacet
facet normal -0.009999 0.000000 -0.999950
outer loop
vertex 5.468750 8.000000 6.191411
vertex 6.250000 8.000000 6.183599
vertex 6.250000 2.000000 6.183599
endloop
endfacet
facet normal -0.009999 0.000000 -0.999950
outer loop
vertex 9.375000 8.000000 6.152349
vertex 10.156250 2.000000 6.144536
vertex 9.375000 2.000000 6.152349
endloop
endfacet
facet normal -0.009999 0.000000 -0.999950
outer loop
vertex 46.093750 8.000000 5.785161
vertex 46.875000 8.000000 5.777349
vertex 46.093750 2.000000 5.785161
endloop
endfacet
facet normal -0.009999 0.000000 -0.999950
outer loop
vertex 4.687500 8.000000 6.199224
vertex 5.468750 8.000000 6.191411
vertex 5.468750 2.000000 6.191411
endloop
endfacet
facet normal -0.009999 0.000000 -0.999950
outer loop
vertex 46.875000 8.000000 5.777349
vertex 47.656250 8.000000 5.769536
vertex 46.875000 2.000000 5.777349
endloop
endfacet
facet normal -0.009999 0.000000 -0.999950
outer loop
vertex 3.906250 8.000000 6.207036
vertex 4.687500 8.000000 6.199224
vertex 4.687500 2.000000 6.199224
endloop
endfacet
facet normal -0.009999 0.000000 -0.999950
outer loop
vertex 8.593750 8.000000 6.160161
vertex 9.375000 2.000000 6.152349
vertex 8.593750 2.000000 6.160161
endloop
endfacet
facet normal -0.009999 0.000000 -0.999950
outer loop
vertex 29.687500 2.000000 5.949224
vertex 30.468750 8.000000 5.941411
vertex 30.468750 2.000000 5.941411
endloop
endfacet
facet normal -0.009999 0.000000 -0.999950
outer loop
vertex 47.656250 8.000000 5.769536
vertex 48.437500 8.000000 5.761724
vertex 47.656250 2.000000 5.769536
endloop
endfacet
facet normal -0.009999 0.000000 -0.999950
outer loop
vertex 3.125000 8.000000 6.214849
vertex 3.906250 8.000000 6.207036
vertex 3.125000 2.000000 6.214849
endloop
endfacet
facet normal 0.000000 0.000000 -1.000000
outer loop
vertex -0.625000 8.000002 6.246099
vertex -2.500000 6.312501 6.246099
vertex -0.937500 8.000002 6.246099
endloop
endfacet
facet normal -0.009999 0.000000 -0.999950
outer loop
vertex 48.437500 8.000000 5.761724
vertex 49.218750 8.000000 5.753911
vertex 48.437500 2.000000 5.761724
endloop
endfacet
facet normal -0.009999 0.000000 -0.999950
outer loop
vertex 30.468750 2.000000 5.941411
vertex 31.250000 8.000000 5.933599
vertex 31.250000 2.000000 5.933599
endloop
endfacet
facet normal -0.009999 0.000000 -0.999950
outer loop
vertex 2.343750 8.000000 6.222661
vertex 3.125000 8.000000 6.214849
vertex 2.343750 2.000000 6.222661
endloop
endfacet
facet normal 0.000000 0.000000 -1.000000
outer loop
vertex -2.500000 6.312501 6.246099
vertex -0.625000 8.000002 6.246099
vertex -2.500000 6.125001 6.246099
endloop
endfacet
facet normal 0.000006 0.000000 -1.000000
outer loop
vertex -0.937500 8.000002 6.246099
vertex -2.500000 6.312501 6.246099
vertex -2.500000 6.500001 6.246099
endloop
endfacet
facet normal -0.009999 0.000000 -0.999950
outer loop
vertex 0.781250 8.000000 6.238286
vertex 1.562500 8.000000 6.230474
vertex 1.562500 2.000000 6.230474
endloop
endfacet
facet normal -0.009999 0.000000 -0.999950
outer loop
vertex 1.562500 8.000000 6.230474
vertex 2.343750 8.000000 6.222661
vertex 2.343750 2.000000 6.222661
endloop
endfacet
facet normal 0.000000 0.000000 -1.000000
outer loop
vertex -1.250000 8.000002 6.246099
vertex -2.500000 6.687502 6.246099
vertex -2.500000 6.875002 6.246099
endloop
endfacet
facet normal 0.000000 0.000000 -1.000000
outer loop
vertex -0.312500 8.000002 6.246099
vertex 0.000000 8.000002 6.246099
vertex -2.500000 5.750001 6.246099
endloop
endfacet
facet normal -0.009999 0.008888 -0.999910
outer loop
vertex 0.000000 8.000002 6.246099
vertex 0.781250 8.000000 6.238286
vertex -2.500000 5.187501 6.246099
endloop
endfacet
facet normal -0.000001 0.000000 -1.000000
outer loop
vertex -0.937500 8.000002 6.246099
vertex -2.500000 6.500001 6.246099
vertex -2.500000 6.687502 6.246099
endloop
endfacet
facet normal 0.000000 0.000000 -1.000000
outer loop
vertex -2.500000 6.687502 6.246099
vertex -1.250000 8.000002 6.246099
vertex -0.937500 8.000002 6.246099
endloop
endfacet
facet normal 0.000000 0.000000 -1.000000
outer loop
vertex -0.625000 8.000002 6.246099
vertex -0.312500 8.000002 6.246099
vertex -2.500000 5.937501 6.246099
endloop
endfacet
facet normal 0.000000 0.000000 -1.000000
outer loop
vertex -1.250000 8.000002 6.246099
vertex -2.500000 6.875002 6.246099
vertex -1.562500 8.000002 6.246099
endloop
endfacet
facet normal 0.000000 0.000000 -1.000000
outer loop
vertex -2.500000 7.250002 6.246099
vertex -1.562500 8.000002 6.246099
vertex -2.500000 7.062502 6.246099
endloop
endfacet
facet normal 0.000000 -0.000001 -1.000000
outer loop
vertex 49.218750 8.000000 5.753911
vertex 49.414062 8.500000 5.753911
vertex 51.685219 10.000000 5.753909
endloop
endfacet
facet normal 0.000002 -0.000001 -1.000000
outer loop
vertex 49.414062 8.500000 5.753911
vertex 49.609375 9.000000 5.753910
vertex 51.123482 10.000000 5.753909
endloop
endfacet
facet normal 0.000000 0.000000 -1.000000
outer loop
vertex -1.562500 8.000002 6.246099
vertex -2.500000 7.250002 6.246099
vertex -1.875000 8.000002 6.246099
endloop
endfacet
facet normal 0.000000 0.000000 -1.000000
outer loop
vertex -2.500000 7.062502 6.246099
vertex -1.562500 8.000002 6.246099
vertex -2.500000 6.875002 6.246099
endloop
endfacet
facet normal 0.000000 0.000000 -1.000000
outer loop
vertex -1.875000 8.000002 6.246099
vertex -2.500000 7.250002 6.246099
vertex -2.500000 7.437502 6.246099
endloop
endfacet
facet normal 0.000000 0.000000 -1.000000
outer loop
vertex -1.875000 8.000002 6.246099
vertex -2.500000 7.437502 6.246099
vertex -2.500000 7.625002 6.246099
endloop
endfacet
facet normal 0.000000 0.000000 -1.000000
outer loop
vertex -2.500000 7.812502 6.246099
vertex -2.500000 8.000002 6.246099
vertex -2.187500 8.000002 6.246099
endloop
endfacet
facet normal 0.000000 0.000000 -1.000000
outer loop
vertex -2.187500 8.000002 6.246099
vertex -1.875000 8.000002 6.246099
vertex -2.500000 7.625002 6.246099
endloop
endfacet
facet normal 0.000000 0.000000 -1.000000
outer loop
vertex -2.500000 7.812502 6.246099
vertex -2.187500 8.000002 6.246099
vertex -2.500000 7.625002 6.246099
endloop
endfacet
facet normal 0.000000 0.000000 -1.000000
outer loop
vertex -2.500000 5.937501 6.246099
vertex -0.312500 8.000002 6.246099
vertex -2.500000 5.750001 6.246099
endloop
endfacet
facet normal 0.000000 0.000000 -1.000000
outer loop
vertex -2.500000 6.125001 6.246099
vertex -0.625000 8.000002 6.246099
vertex -2.500000 5.937501 6.246099
endloop
endfacet
facet normal 0.000000 -0.000001 -1.000000
outer loop
vertex 49.609375 9.000000 5.753910
vertex 49.804688 9.500000 5.753910
vertex 50.561741 10.000000 5.753909
endloop
endfacet
facet normal 0.000000 -0.000001 -1.000000
outer loop
vertex 49.804688 9.500000 5.753910
vertex 50.000000 10.000000 5.753909
vertex 50.561741 10.000000 5.753909
endloop
endfacet
facet normal 0.000000 -0.000001 -1.000000
outer loop
vertex 49.414062 8.500000 5.753911
vertex 51.123482 10.000000 5.753909
vertex 51.685219 10.000000 5.753909
endloop
endfacet
facet normal 0.000000 -0.000001 -1.000000
outer loop
vertex 49.609375 9.000000 5.753910
vertex 50.561741 10.000000 5.753909
vertex 51.123482 10.000000 5.753909
endloop
endfacet
facet normal 0.000000 -0.000001 -1.000000
outer loop
vertex 51.685219 10.000000 5.753909
vertex 52.246960 10.000000 5.753909
vertex 49.218750 8.000000 5.753911
endloop
endfacet
facet normal 0.000000 0.000000 -1.000000
outer loop
vertex -2.500000 5.750001 6.246099
vertex 0.000000 8.000002 6.246099
vertex -2.500000 5.562501 6.246099
endloop
endfacet
facet normal 0.000004 0.000000 -1.000000
outer loop
vertex 0.000000 8.000002 6.246099
vertex -2.500000 5.187501 6.246099
vertex -2.500000 5.375001 6.246099
endloop
endfacet
facet normal 0.000000 0.000000 -1.000000
outer loop
vertex -2.500000 5.562501 6.246099
vertex 0.000000 8.000002 6.246099
vertex -2.500000 5.375001 6.246099
endloop
endfacet
facet normal 0.000000 -0.000001 -1.000000
outer loop
vertex 52.808701 10.000000 5.753909
vertex 53.370438 10.000000 5.753909
vertex 56.740875 6.312500 5.753914
endloop
endfacet
facet normal 0.000000 -0.000002 -1.000000
outer loop
vertex 53.370438 10.000000 5.753909
vertex 53.932178 10.000000 5.753909
vertex 56.740875 6.875000 5.753914
endloop
endfacet
facet normal 0.000000 -0.000001 -1.000000
outer loop
vertex 49.218750 8.000000 5.753911
vertex 52.246960 10.000000 5.753909
vertex 52.808701 10.000000 5.753909
endloop
endfacet
facet normal -0.002387 0.000000 -0.999997
outer loop
vertex -2.500000 5.187501 6.246099
vertex 0.781250 8.000000 6.238286
vertex -2.500000 5.000001 6.246099
endloop
endfacet
facet normal -0.009999 0.000000 -0.999950
outer loop
vertex 1.562500 8.000000 6.230474
vertex 2.343750 2.000000 6.222661
vertex 1.562500 2.000000 6.230474
endloop
endfacet
facet normal -0.002381 0.000000 -0.999997
outer loop
vertex -2.500000 5.000001 6.246099
vertex 0.781250 8.000000 6.238286
vertex 0.781250 2.000000 6.238286
endloop
endfacet
facet normal 0.000000 -0.000001 -1.000000
outer loop
vertex 49.218750 8.000000 5.753911
vertex 52.808701 10.000000 5.753909
vertex 56.740875 5.937500 5.753914
endloop
endfacet
facet normal 0.000000 0.000000 -1.000000
outer loop
vertex 56.740875 6.875000 5.753914
vertex 53.932178 10.000000 5.753909
vertex 56.740875 7.062500 5.753914
endloop
endfacet
facet normal 0.000000 0.000000 -1.000000
outer loop
vertex 56.740875 7.625000 5.753914
vertex 54.493919 10.000000 5.753909
vertex 56.740875 7.812500 5.753914
endloop
endfacet
facet normal 0.000000 -0.000002 -1.000000
outer loop
vertex 54.493919 10.000000 5.753909
vertex 55.055656 10.000000 5.753909
vertex 56.740875 8.000000 5.753914
endloop
endfacet
facet normal 0.000000 -0.000003 -1.000000
outer loop
vertex 55.055656 10.000000 5.753909
vertex 55.617397 10.000000 5.753909
vertex 56.740875 8.500000 5.753914
endloop
endfacet
facet normal 0.000000 0.000000 -1.000000
outer loop
vertex 55.055656 10.000000 5.753909
vertex 56.740875 8.500000 5.753914
vertex 56.740875 8.250000 5.753914
endloop
endfacet
facet normal 0.000002 0.000000 -1.000000
outer loop
vertex 54.493919 10.000000 5.753909
vertex 56.740875 7.625000 5.753914
vertex 56.740875 7.437500 5.753914
endloop
endfacet
facet normal 0.000000 -0.000002 -1.000000
outer loop
vertex 53.932178 10.000000 5.753909
vertex 54.493919 10.000000 5.753909
vertex 56.740875 7.437500 5.753914
endloop
endfacet
facet normal 0.000005 0.000000 -1.000000
outer loop
vertex 56.740875 8.000000 5.753914
vertex 55.055656 10.000000 5.753909
vertex 56.740875 8.250000 5.753914
endloop
endfacet
facet normal -0.002387 0.000000 -0.999997
outer loop
vertex -2.500000 4.812501 6.246099
vertex -2.500000 5.000001 6.246099
vertex 0.781250 2.000000 6.238286
endloop
endfacet
facet normal 0.000003 0.000000 -1.000000
outer loop
vertex 56.740875 9.000000 5.753914
vertex 55.617397 10.000000 5.753909
vertex 56.740875 9.250000 5.753914
endloop
endfacet
facet normal 0.000000 -0.000019 -1.000000
outer loop
vertex 56.179138 10.000000 5.753909
vertex 56.740875 10.000000 5.753909
vertex 56.740875 9.750000 5.753914
endloop
endfacet
facet normal 0.000003 0.000000 -1.000000
outer loop
vertex 55.617397 10.000000 5.753909
vertex 56.740875 9.000000 5.753914
vertex 56.740875 8.750000 5.753914
endloop
endfacet
facet normal 0.000000 -0.000006 -1.000000
outer loop
vertex 55.617397 10.000000 5.753909
vertex 56.179138 10.000000 5.753909
vertex 56.740875 9.250000 5.753914
endloop
endfacet
facet normal 0.000010 0.000000 -1.000000
outer loop
vertex 56.740875 9.250000 5.753914
vertex 56.179138 10.000000 5.753909
vertex 56.740875 9.500000 5.753914
endloop
endfacet
facet normal -0.009999 0.000000 -0.999950
outer loop
vertex 0.781250 8.000000 6.238286
vertex 1.562500 2.000000 6.230474
vertex 0.781250 2.000000 6.238286
endloop
endfacet
facet normal -0.009999 0.000000 -0.999950
outer loop
vertex 2.343750 2.000000 6.222661
vertex 3.125000 8.000000 6.214849
vertex 3.125000 2.000000 6.214849
endloop
endfacet
facet normal 0.000000 0.000000 -1.000000
outer loop
vertex -2.500000 4.250001 6.246099
vertex -2.500000 4.437501 6.246099
vertex 0.000000 2.000000 6.246099
endloop
endfacet
facet normal 0.000000 0.000000 -1.000000
outer loop
vertex -2.500000 4.437501 6.246099
vertex -2.500000 4.625001 6.246099
vertex 0.000000 2.000000 6.246099
endloop
endfacet
facet normal 0.000008 0.000000 -1.000000
outer loop
vertex -2.500000 4.625001 6.246099
vertex -2.500000 4.812501 6.246099
vertex 0.000000 2.000000 6.246099
endloop
endfacet
facet normal 0.000008 0.000000 -1.000000
outer loop
vertex 56.179138 10.000000 5.753909
vertex 56.740875 9.750000 5.753914
vertex 56.740875 9.500000 5.753914
endloop
endfacet
facet normal 0.000007 0.000000 -1.000000
outer loop
vertex 55.617397 10.000000 5.753909
vertex 56.740875 8.750000 5.753914
vertex 56.740875 8.500000 5.753914
endloop
endfacet
facet normal 0.000000 0.000000 -1.000000
outer loop
vertex -2.500000 3.687500 6.246099
vertex -2.500000 3.875001 6.246099
vertex -0.625000 2.000000 6.246099
endloop
endfacet
facet normal 0.000000 0.000000 -1.000000
outer loop
vertex -2.500000 3.875001 6.246099
vertex -2.500000 4.062501 6.246099
vertex -0.625000 2.000000 6.246099
endloop
endfacet
facet normal 0.000000 0.000000 -1.000000
outer loop
vertex -2.500000 4.062501 6.246099
vertex -2.500000 4.250001 6.246099
vertex -0.312500 2.000000 6.246099
endloop
endfacet
facet normal -0.009999 0.000000 -0.999950
outer loop
vertex 3.906250 8.000000 6.207036
vertex 4.687500 2.000000 6.199224
vertex 3.906250 2.000000 6.207036
endloop
endfacet
facet normal 0.000002 0.000000 -1.000000
outer loop
vertex 54.493919 10.000000 5.753909
vertex 56.740875 8.000000 5.753914
vertex 56.740875 7.812500 5.753914
endloop
endfacet
facet normal -0.009999 0.000000 -0.999950
outer loop
vertex 3.906250 8.000000 6.207036
vertex 3.906250 2.000000 6.207036
vertex 3.125000 2.000000 6.214849
endloop
endfacet
facet normal -0.009999 -0.008888 -0.999911
outer loop
vertex 0.000000 2.000000 6.246099
vertex -2.500000 4.812501 6.246099
vertex 0.781250 2.000000 6.238286
endloop
endfacet
facet normal 0.000000 0.000000 -1.000000
outer loop
vertex -2.500000 3.125000 6.246099
vertex -2.500000 3.312500 6.246099
vertex -1.250000 2.000000 6.246099
endloop
endfacet
facet normal 0.000000 0.000000 -1.000000
outer loop
vertex -2.500000 3.312500 6.246099
vertex -2.500000 3.500000 6.246099
vertex -0.937500 2.000000 6.246099
endloop
endfacet
facet normal 0.000000 0.000000 -1.000000
outer loop
vertex -2.500000 3.500000 6.246099
vertex -2.500000 3.687500 6.246099
vertex -0.937500 2.000000 6.246099
endloop
endfacet
facet normal 0.000002 0.000000 -1.000000
outer loop
vertex 53.932178 10.000000 5.753909
vertex 56.740875 7.437500 5.753914
vertex 56.740875 7.250000 5.753914
endloop
endfacet
facet normal 0.000000 0.000000 -1.000000
outer loop
vertex -2.500000 3.687500 6.246099
vertex -0.625000 2.000000 6.246099
vertex -0.937500 2.000000 6.246099
endloop
endfacet
facet normal 0.000000 0.000000 -1.000000
outer loop
vertex -2.500000 2.562500 6.246099
vertex -2.500000 2.750000 6.246099
vertex -1.875000 2.000000 6.246099
endloop
endfacet
facet normal 0.000005 0.000000 -1.000000
outer loop
vertex -2.500000 2.750000 6.246099
vertex -2.500000 2.937500 6.246099
vertex -1.562500 2.000000 6.246099
endloop
endfacet
facet normal 0.000000 0.000000 -1.000000
outer loop
vertex -1.562500 2.000000 6.246099
vertex -2.500000 3.125000 6.246099
vertex -1.250000 2.000000 6.246099
endloop
endfacet
facet normal 0.000000 0.000000 -1.000000
outer loop
vertex -2.500000 2.937500 6.246099
vertex -2.500000 3.125000 6.246099
vertex -1.562500 2.000000 6.246099
endloop
endfacet
facet normal 0.000000 0.000000 -1.000000
outer loop
vertex -1.250000 2.000000 6.246099
vertex -2.500000 3.312500 6.246099
vertex -0.937500 2.000000 6.246099
endloop
endfacet
facet normal 0.000000 0.000000 -1.000000
outer loop
vertex 56.740875 7.250000 5.753914
vertex 56.740875 7.062500 5.753914
vertex 53.932178 10.000000 5.753909
endloop
endfacet
facet normal 0.000005 0.000000 -1.000000
outer loop
vertex 53.370438 10.000000 5.753909
vertex 56.740875 6.875000 5.753914
vertex 56.740875 6.687500 5.753914
endloop
endfacet
facet normal 0.000000 0.000000 -1.000000
outer loop
vertex -2.500000 2.000000 6.246099
vertex -2.500000 2.187500 6.246099
vertex -2.187500 2.000000 6.246099
endloop
endfacet
facet normal 0.000000 0.000000 -1.000000
outer loop
vertex -2.500000 2.187500 6.246099
vertex -2.500000 2.375000 6.246099
vertex -2.187500 2.000000 6.246099
endloop
endfacet
facet normal 0.000000 0.000000 -1.000000
outer loop
vertex -2.187500 2.000000 6.246099
vertex -2.500000 2.375000 6.246099
vertex -1.875000 2.000000 6.246099
endloop
endfacet
facet normal 0.000000 0.000000 -1.000000
outer loop
vertex -2.500000 2.375000 6.246099
vertex -2.500000 2.562500 6.246099
vertex -1.875000 2.000000 6.246099
endloop
endfacet
facet normal 0.000000 0.000000 -1.000000
outer loop
vertex -2.500000 2.750000 6.246099
vertex -1.562500 2.000000 6.246099
vertex -1.875000 2.000000 6.246099
endloop
endfacet
facet normal 0.000000 0.000000 -1.000000
outer loop
vertex 56.740875 6.687500 5.753914
vertex 56.740875 6.500000 5.753914
vertex 53.370438 10.000000 5.753909
endloop
endfacet
facet normal 0.000005 0.000000 -1.000000
outer loop
vertex 53.370438 10.000000 5.753909
vertex 56.740875 6.500000 5.753914
vertex 56.740875 6.312500 5.753914
endloop
endfacet
facet normal 0.000000 0.000000 -1.000000
outer loop
vertex 56.740875 6.312500 5.753914
vertex 56.740875 6.125000 5.753914
vertex 52.808701 10.000000 5.753909
endloop
endfacet
facet normal 0.000005 0.000000 -1.000000
outer loop
vertex 56.740875 6.125000 5.753914
vertex 56.740875 5.937500 5.753914
vertex 52.808701 10.000000 5.753909
endloop
endfacet
facet normal 0.000000 0.000000 -1.000000
outer loop
vertex 56.740875 5.750000 5.753914
vertex 56.740875 5.562500 5.753914
vertex 49.218750 8.000000 5.753911
endloop
endfacet
facet normal 0.000001 0.000000 -1.000000
outer loop
vertex 56.740875 5.562500 5.753914
vertex 56.740875 5.375000 5.753914
vertex 49.218750 8.000000 5.753911
endloop
endfacet
facet normal -0.000001 0.000000 -1.000000
outer loop
vertex 49.218750 8.000000 5.753911
vertex 56.740875 5.937500 5.753914
vertex 56.740875 5.750000 5.753914
endloop
endfacet
facet normal 0.000000 0.000000 -1.000000
outer loop
vertex 0.000000 2.000000 6.246099
vertex -0.312500 2.000000 6.246099
vertex -2.500000 4.250001 6.246099
endloop
endfacet
facet normal 0.000000 0.000000 -1.000000
outer loop
vertex -0.625000 2.000000 6.246099
vertex -2.500000 4.062501 6.246099
vertex -0.312500 2.000000 6.246099
endloop
endfacet
facet normal 0.000000 0.000000 -1.000000
outer loop
vertex 56.740875 5.187500 5.753914
vertex 56.740875 5.000000 5.753914
vertex 49.218750 8.000000 5.753911
endloop
endfacet
facet normal 0.000000 0.000000 -1.000000
outer loop
vertex 56.740875 5.000000 5.753914
vertex 56.740875 4.812500 5.753914
vertex 49.218750 2.000000 5.753911
endloop
endfacet
facet normal 0.000000 0.000000 -1.000000
outer loop
vertex 49.218750 8.000000 5.753911
vertex 56.740875 5.000000 5.753914
vertex 49.218750 2.000000 5.753911
endloop
endfacet
facet normal 0.000001 0.000000 -1.000000
outer loop
vertex 49.218750 8.000000 5.753911
vertex 56.740875 5.375000 5.753914
vertex 56.740875 5.187500 5.753914
endloop
endfacet
facet normal 0.000000 0.000000 -1.000000
outer loop
vertex 56.740875 4.625000 5.753914
vertex 56.740875 4.437500 5.753914
vertex 49.218750 2.000000 5.753911
endloop
endfacet
facet normal 0.000001 0.000000 -1.000000
outer loop
vertex 56.740875 4.437500 5.753914
vertex 56.740875 4.250000 5.753914
vertex 49.218750 2.000000 5.753911
endloop
endfacet
facet normal 0.000000 0.000000 -1.000000
outer loop
vertex 56.740875 4.625000 5.753914
vertex 49.218750 2.000000 5.753911
vertex 56.740875 4.812500 5.753914
endloop
endfacet
facet normal -0.009999 0.000000 -0.999950
outer loop
vertex 5.468750 2.000000 6.191411
vertex 4.687500 2.000000 6.199224
vertex 4.687500 8.000000 6.199224
endloop
endfacet
facet normal 0.000005 0.000000 -1.000000
outer loop
vertex 56.740875 4.062500 5.753914
vertex 56.740875 3.875000 5.753914
vertex 52.808701 -0.000001 5.753909
endloop
endfacet
facet normal 0.000000 0.000000 -1.000000
outer loop
vertex 56.740875 3.875000 5.753914
vertex 56.740875 3.687500 5.753914
vertex 52.808701 -0.000001 5.753909
endloop
endfacet
facet normal -0.000001 0.000000 -1.000000
outer loop
vertex 56.740875 4.062500 5.753914
vertex 49.218750 2.000000 5.753911
vertex 56.740875 4.250000 5.753914
endloop
endfacet
facet normal -0.009999 0.000000 -0.999950
outer loop
vertex 7.812500 2.000000 6.167974
vertex 7.031250 2.000000 6.175786
vertex 7.031250 8.000000 6.175786
endloop
endfacet
facet normal -0.009999 0.000000 -0.999950
outer loop
vertex 7.031250 2.000000 6.175786
vertex 6.250000 2.000000 6.183599
vertex 6.250000 8.000000 6.183599
endloop
endfacet
facet normal -0.009999 0.000000 -0.999950
outer loop
vertex 5.468750 2.000000 6.191411
vertex 5.468750 8.000000 6.191411
vertex 6.250000 2.000000 6.183599
endloop
endfacet
facet normal 0.000000 0.000001 -1.000000
outer loop
vertex 49.218750 2.000000 5.753911
vertex 56.740875 4.062500 5.753914
vertex 52.808701 -0.000001 5.753909
endloop
endfacet
facet normal 0.000000 0.000000 -1.000000
outer loop
vertex 56.740875 3.500000 5.753914
vertex 56.740875 3.312500 5.753914
vertex 53.370438 -0.000001 5.753909
endloop
endfacet
facet normal 0.000000 0.000000 -1.000000
outer loop
vertex 56.740875 3.312500 5.753914
vertex 56.740875 3.125000 5.753914
vertex 53.370438 -0.000001 5.753909
endloop
endfacet
facet normal 0.000000 0.000001 -1.000000
outer loop
vertex 52.808701 -0.000001 5.753909
vertex 56.740875 3.687500 5.753914
vertex 53.370438 -0.000001 5.753909
endloop
endfacet
facet normal 0.000006 0.000000 -1.000000
outer loop
vertex 56.740875 3.687500 5.753914
vertex 56.740875 3.500000 5.753914
vertex 53.370438 -0.000001 5.753909
endloop
endfacet
facet normal -0.009999 0.000000 -0.999950
outer loop
vertex 8.593750 2.000000 6.160161
vertex 7.812500 2.000000 6.167974
vertex 7.812500 8.000000 6.167974
endloop
endfacet
facet normal 0.000004 0.000000 -1.000000
outer loop
vertex 56.740875 2.937500 5.753914
vertex 56.740875 2.750000 5.753914
vertex 53.932178 -0.000001 5.753909
endloop
endfacet
facet normal 0.000000 0.000000 -1.000000
outer loop
vertex 56.740875 2.750000 5.753914
vertex 56.740875 2.562500 5.753914
vertex 53.932178 -0.000001 5.753909
endloop
endfacet
facet normal 0.000000 0.000002 -1.000000
outer loop
vertex 53.370438 -0.000001 5.753909
vertex 56.740875 3.125000 5.753914
vertex 53.932178 -0.000001 5.753909
endloop
endfacet
facet normal 0.000007 0.000000 -1.000000
outer loop
vertex 56.740875 3.125000 5.753914
vertex 56.740875 2.937500 5.753914
vertex 53.932178 -0.000001 5.753909
endloop
endfacet
facet normal 0.000000 0.000000 -1.000000
outer loop
vertex 56.740875 2.375000 5.753914
vertex 56.740875 2.187500 5.753914
vertex 54.493919 -0.000001 5.753909
endloop
endfacet
facet normal 0.000005 0.000000 -1.000000
outer loop
vertex 56.740875 2.187500 5.753914
vertex 56.740875 2.000000 5.753914
vertex 54.493919 -0.000001 5.753909
endloop
endfacet
facet normal 0.000000 0.000002 -1.000000
outer loop
vertex 53.932178 -0.000001 5.753909
vertex 56.740875 2.562500 5.753914
vertex 54.493919 -0.000001 5.753909
endloop
endfacet
facet normal 0.000005 0.000000 -1.000000
outer loop
vertex 56.740875 2.562500 5.753914
vertex 56.740875 2.375000 5.753914
vertex 54.493919 -0.000001 5.753909
endloop
endfacet
facet normal 0.000005 0.000000 -1.000000
outer loop
vertex 56.740875 1.750000 5.753914
vertex 56.740875 1.500000 5.753914
vertex 55.055656 -0.000001 5.753909
endloop
endfacet
facet normal 0.000003 0.000000 -1.000000
outer loop
vertex 56.740875 1.500000 5.753914
vertex 56.740875 1.250000 5.753914
vertex 55.617397 -0.000001 5.753909
endloop
endfacet
facet normal 0.000000 0.000000 -1.000000
outer loop
vertex 55.055656 -0.000001 5.753909
vertex 56.740875 2.000000 5.753914
vertex 56.740875 1.750000 5.753914
endloop
endfacet
facet normal -0.009999 0.000000 -0.999950
outer loop
vertex 31.250000 2.000000 5.933599
vertex 32.031250 8.000000 5.925786
vertex 32.031250 2.000000 5.925786
endloop
endfacet
facet normal -0.009999 0.000000 -0.999950
outer loop
vertex 32.031250 2.000000 5.925786
vertex 32.812500 8.000000 5.917974
vertex 32.812500 2.000000 5.917974
endloop
endfacet
facet normal 0.000000 0.000002 -1.000000
outer loop
vertex 56.740875 2.000000 5.753914
vertex 55.055656 -0.000001 5.753909
vertex 54.493919 -0.000001 5.753909
endloop
endfacet
facet normal 0.000003 0.000000 -1.000000
outer loop
vertex 56.740875 1.000000 5.753914
vertex 56.740875 0.750000 5.753914
vertex 55.617397 -0.000001 5.753909
endloop
endfacet
facet normal 0.000007 0.000000 -1.000000
outer loop
vertex 56.740875 0.750000 5.753914
vertex 56.740875 0.500000 5.753914
vertex 56.179138 -0.000001 5.753909
endloop
endfacet
facet normal 0.000007 0.000000 -1.000000
outer loop
vertex 55.617397 -0.000001 5.753909
vertex 56.740875 1.250000 5.753914
vertex 56.740875 1.000000 5.753914
endloop
endfacet
facet normal 0.000000 0.000003 -1.000000
outer loop
vertex 56.740875 1.500000 5.753914
vertex 55.617397 -0.000001 5.753909
vertex 55.055656 -0.000001 5.753909
endloop
endfacet
facet normal -0.009999 0.000000 -0.999950
outer loop
vertex 33.593750 2.000000 5.910161
vertex 34.375000 8.000000 5.902349
vertex 34.375000 2.000000 5.902349
endloop
endfacet
facet normal -0.009999 0.000000 -0.999950
outer loop
vertex 32.812500 2.000000 5.917974
vertex 33.593750 8.000000 5.910161
vertex 33.593750 2.000000 5.910161
endloop
endfacet
facet normal 0.000000 0.000006 -1.000000
outer loop
vertex 55.617397 -0.000001 5.753909
vertex 56.740875 0.750000 5.753914
vertex 56.179138 -0.000001 5.753909
endloop
endfacet
facet normal 0.000000 0.000019 -1.000000
outer loop
vertex 56.740875 0.250000 5.753914
vertex 56.740875 -0.000001 5.753909
vertex 56.179138 -0.000001 5.753909
endloop
endfacet
facet normal 0.000008 0.000000 -1.000000
outer loop
vertex 56.740875 0.500000 5.753914
vertex 56.740875 0.250000 5.753914
vertex 56.179138 -0.000001 5.753909
endloop
endfacet
facet normal -0.009999 0.000000 -0.999950
outer loop
vertex 35.156250 8.000000 5.894536
vertex 35.156250 2.000000 5.894536
vertex 34.375000 2.000000 5.902349
endloop
endfacet
facet normal -0.009999 0.000000 -0.999950
outer loop
vertex 35.156250 2.000000 5.894536
vertex 35.937500 8.000000 5.886724
vertex 35.937500 2.000000 5.886724
endloop
endfacet
facet normal -0.009999 0.000000 -0.999950
outer loop
vertex 35.937500 2.000000 5.886724
vertex 36.718750 8.000000 5.878911
vertex 36.718750 2.000000 5.878911
endloop
endfacet
facet normal -0.009999 0.000000 -0.999950
outer loop
vertex 36.718750 2.000000 5.878911
vertex 37.500000 8.000000 5.871099
vertex 37.500000 2.000000 5.871099
endloop
endfacet
facet normal 0.000000 0.000001 -1.000000
outer loop
vertex 52.246960 -0.000001 5.753909
vertex 51.685219 -0.000001 5.753909
vertex 49.218750 2.000000 5.753911
endloop
endfacet
facet normal 0.000000 0.000001 -1.000000
outer loop
vertex 51.685219 -0.000001 5.753909
vertex 51.123482 -0.000001 5.753909
vertex 49.414062 1.500000 5.753911
endloop
endfacet
facet normal 0.000000 0.000001 -1.000000
outer loop
vertex 52.246960 -0.000001 5.753909
vertex 49.218750 2.000000 5.753911
vertex 52.808701 -0.000001 5.753909
endloop
endfacet
facet normal -0.009999 0.000000 -0.999950
outer loop
vertex 38.281250 2.000000 5.863286
vertex 39.062500 8.000000 5.855474
vertex 39.062500 2.000000 5.855474
endloop
endfacet
facet normal -0.009999 0.000000 -0.999950
outer loop
vertex 37.500000 2.000000 5.871099
vertex 38.281250 8.000000 5.863286
vertex 38.281250 2.000000 5.863286
endloop
endfacet
facet normal 0.000000 0.000001 -1.000000
outer loop
vertex 49.218750 2.000000 5.753911
vertex 51.685219 -0.000001 5.753909
vertex 49.414062 1.500000 5.753911
endloop
endfacet
facet normal 0.000000 0.000001 -1.000000
outer loop
vertex 50.561741 -0.000001 5.753909
vertex 50.000000 -0.000001 5.753909
vertex 49.804688 0.499999 5.753910
endloop
endfacet
facet normal 0.000000 0.000001 -1.000000
outer loop
vertex 51.123482 -0.000001 5.753909
vertex 50.561741 -0.000001 5.753909
vertex 49.609375 1.000000 5.753910
endloop
endfacet
facet normal -0.009999 0.000000 -0.999950
outer loop
vertex 39.843750 8.000000 5.847661
vertex 39.843750 2.000000 5.847661
vertex 39.062500 2.000000 5.855474
endloop
endfacet
facet normal 0.000000 0.000001 -1.000000
outer loop
vertex 51.123482 -0.000001 5.753909
vertex 49.609375 1.000000 5.753910
vertex 49.414062 1.500000 5.753911
endloop
endfacet
facet normal 0.000000 0.000001 -1.000000
outer loop
vertex 50.561741 -0.000001 5.753909
vertex 49.804688 0.499999 5.753910
vertex 49.609375 1.000000 5.753910
endloop
endfacet
facet normal -0.009999 0.000000 -0.999950
outer loop
vertex 39.843750 2.000000 5.847661
vertex 40.625000 8.000000 5.839849
vertex 40.625000 2.000000 5.839849
endloop
endfacet
facet normal -0.009999 0.000000 -0.999950
outer loop
vertex 48.437500 2.000000 5.761724
vertex 47.656250 2.000000 5.769536
vertex 48.437500 8.000000 5.761724
endloop
endfacet
facet normal -0.009999 0.000000 -0.999950
outer loop
vertex 47.656250 2.000000 5.769536
vertex 46.875000 2.000000 5.777349
vertex 47.656250 8.000000 5.769536
endloop
endfacet
facet normal -0.009999 0.000000 -0.999950
outer loop
vertex 49.218750 8.000000 5.753911
vertex 49.218750 2.000000 5.753911
vertex 48.437500 2.000000 5.761724
endloop
endfacet
facet normal -0.009999 0.000000 -0.999950
outer loop
vertex 40.625000 2.000000 5.839849
vertex 41.406250 8.000000 5.832036
vertex 41.406250 2.000000 5.832036
endloop
endfacet
facet normal -0.009999 0.000000 -0.999950
outer loop
vertex 41.406250 2.000000 5.832036
vertex 42.187500 8.000000 5.824224
vertex 42.187500 2.000000 5.824224
endloop
endfacet
facet normal -0.009999 0.000000 -0.999950
outer loop
vertex 46.093750 2.000000 5.785161
vertex 45.312500 2.000000 5.792974
vertex 46.093750 8.000000 5.785161
endloop
endfacet
facet normal -0.009999 0.000000 -0.999950
outer loop
vertex 45.312500 2.000000 5.792974
vertex 44.531250 2.000000 5.800786
vertex 45.312500 8.000000 5.792974
endloop
endfacet
facet normal -0.009999 0.000000 -0.999950
outer loop
vertex 46.875000 2.000000 5.777349
vertex 46.093750 2.000000 5.785161
vertex 46.875000 8.000000 5.777349
endloop
endfacet
facet normal -0.009999 0.000000 -0.999950
outer loop
vertex 42.968750 2.000000 5.816411
vertex 43.750000 8.000000 5.808599
vertex 43.750000 2.000000 5.808599
endloop
endfacet
facet normal -0.009999 0.000000 -0.999950
outer loop
vertex 42.187500 2.000000 5.824224
vertex 42.968750 8.000000 5.816411
vertex 42.968750 2.000000 5.816411
endloop
endfacet
endsolid Air
