solid Inlet
facet normal 0.000000 0.000000 -1.000000
outer loop
vertex -1.562500 4.250000 0.000000
vertex -1.875000 4.437500 0.000000
vertex -1.562500 4.437500 0.000000
endloop
endfacet
facet normal 0.000000 0.000000 -1.000000
outer loop
vertex -1.562500 5.187500 0.000000
vertex -1.875000 5.375000 0.000000
vertex -1.562500 5.375000 0.000000
endloop
endfacet
facet normal 0.000000 0.000000 -1.000000
outer loop
vertex -1.562500 4.812500 0.000000
vertex -1.875000 5.000000 0.000000
vertex -1.562500 5.000000 0.000000
endloop
endfacet
facet normal 0.000000 0.000000 -1.000000
outer loop
vertex -1.562500 5.000000 0.000000
vertex -1.875000 5.187500 0.000000
vertex -1.562500 5.187500 0.000000
endloop
endfacet
facet normal 0.000000 0.000000 -1.000000
outer loop
vertex -1.562500 4.625000 0.000000
vertex -1.875000 4.812500 0.000000
vertex -1.562500 4.812500 0.000000
endloop
endfacet
facet normal 0.000000 0.000000 -1.000000
outer loop
vertex -1.562500 5.562500 0.000000
vertex -1.875000 5.750000 0.000000
vertex -1.562500 5.750000 0.000000
endloop
endfacet
facet normal 0.000000 0.000000 -1.000000
outer loop
vertex -1.562500 5.375000 0.000000
vertex -1.875000 5.562500 0.000000
vertex -1.562500 5.562500 0.000000
endloop
endfacet
facet normal 0.000000 0.000000 -1.000000
outer loop
vertex -1.562500 4.437500 0.000000
vertex -1.875000 4.625000 0.000000
vertex -1.562500 4.625000 0.000000
endloop
endfacet
facet normal 0.000000 0.000000 -1.000000
outer loop
vertex -1.250000 4.437500 0.000000
vertex -1.562500 4.625000 0.000000
vertex -1.250000 4.625000 0.000000
endloop
endfacet
facet normal 0.000000 0.000000 -1.000000
outer loop
vertex -1.250000 5.375000 0.000000
vertex -1.562500 5.562500 0.000000
vertex -1.250000 5.562500 0.000000
endloop
endfacet
facet normal 0.000000 0.000000 -1.000000
outer loop
vertex -1.250000 5.562500 0.000000
vertex -1.562500 5.750000 0.000000
vertex -1.250000 5.750000 0.000000
endloop
endfacet
facet normal 0.000000 0.000000 -1.000000
outer loop
vertex -1.250000 4.625000 0.000000
vertex -1.562500 4.812500 0.000000
vertex -1.250000 4.812500 0.000000
endloop
endfacet
facet normal 0.000000 0.000000 -1.000000
outer loop
vertex -1.250000 5.000000 0.000000
vertex -1.562500 5.187500 0.000000
vertex -1.250000 5.187500 0.000000
endloop
endfacet
facet normal 0.000000 0.000000 -1.000000
outer loop
vertex -1.250000 4.812500 0.000000
vertex -1.562500 5.000000 0.000000
vertex -1.250000 5.000000 0.000000
endloop
endfacet
facet normal 0.000000 0.000000 -1.000000
outer loop
vertex -1.250000 5.187500 0.000000
vertex -1.562500 5.375000 0.000000
vertex -1.250000 5.375000 0.000000
endloop
endfacet
facet normal 0.000000 0.000000 -1.000000
outer loop
vertex -1.250000 4.250000 0.000000
vertex -1.562500 4.437500 0.000000
vertex -1.250000 4.437500 0.000000
endloop
endfacet
facet normal 0.000000 0.000000 -1.000000
outer loop
vertex -1.875000 4.250000 0.000000
vertex -2.187500 4.437500 0.000000
vertex -1.875000 4.437500 0.000000
endloop
endfacet
facet normal 0.000000 0.000000 -1.000000
outer loop
vertex -1.875000 5.187500 0.000000
vertex -2.187500 5.375000 0.000000
vertex -1.875000 5.375000 0.000000
endloop
endfacet
facet normal 0.000000 0.000000 -1.000000
outer loop
vertex -1.875000 4.812500 0.000000
vertex -2.187500 5.000000 0.000000
vertex -1.875000 5.000000 0.000000
endloop
endfacet
facet normal 0.000000 0.000000 -1.000000
outer loop
vertex -1.875000 5.000000 0.000000
vertex -2.187500 5.187500 0.000000
vertex -1.875000 5.187500 0.000000
endloop
endfacet
facet normal 0.000000 0.000000 -1.000000
outer loop
vertex -1.875000 4.625000 0.000000
vertex -2.187500 4.812500 0.000000
vertex -1.875000 4.812500 0.000000
endloop
endfacet
facet normal 0.000000 0.000000 -1.000000
outer loop
vertex -1.875000 5.562500 0.000000
vertex -2.187500 5.750000 0.000000
vertex -1.875000 5.750000 0.000000
endloop
endfacet
facet normal 0.000000 0.000000 -1.000000
outer loop
vertex -1.875000 5.375000 0.000000
vertex -2.187500 5.562500 0.000000
vertex -1.875000 5.562500 0.000000
endloop
endfacet
facet normal 0.000000 0.000000 -1.000000
outer loop
vertex -1.875000 4.437500 0.000000
vertex -2.187500 4.625000 0.000000
vertex -1.875000 4.625000 0.000000
endloop
endfacet
facet normal 0.000000 0.000000 -1.000000
outer loop
vertex -1.562500 4.250000 0.000000
vertex -1.875000 4.250000 0.000000
vertex -1.875000 4.437500 0.000000
endloop
endfacet
facet normal 0.000000 0.000000 -1.000000
outer loop
vertex -1.562500 5.187500 0.000000
vertex -1.875000 5.187500 0.000000
vertex -1.875000 5.375000 0.000000
endloop
endfacet
facet normal 0.000000 0.000000 -1.000000
outer loop
vertex -1.562500 4.812500 0.000000
vertex -1.875000 4.812500 0.000000
vertex -1.875000 5.000000 0.000000
endloop
endfacet
facet normal 0.000000 0.000000 -1.000000
outer loop
vertex -1.562500 5.000000 0.000000
vertex -1.875000 5.000000 0.000000
vertex -1.875000 5.187500 0.000000
endloop
endfacet
facet normal 0.000000 0.000000 -1.000000
outer loop
vertex -1.562500 4.625000 0.000000
vertex -1.875000 4.625000 0.000000
vertex -1.875000 4.812500 0.000000
endloop
endfacet
facet normal 0.000000 0.000000 -1.000000
outer loop
vertex -1.562500 5.562500 0.000000
vertex -1.875000 5.562500 0.000000
vertex -1.875000 5.750000 0.000000
endloop
endfacet
facet normal 0.000000 0.000000 -1.000000
outer loop
vertex -1.562500 5.375000 0.000000
vertex -1.875000 5.375000 0.000000
vertex -1.875000 5.562500 0.000000
endloop
endfacet
facet normal 0.000000 0.000000 -1.000000
outer loop
vertex -1.562500 4.437500 0.000000
vertex -1.875000 4.437500 0.000000
vertex -1.875000 4.625000 0.000000
endloop
endfacet
facet normal 0.000000 0.000000 -1.000000
outer loop
vertex -1.250000 4.437500 0.000000
vertex -1.562500 4.437500 0.000000
vertex -1.562500 4.625000 0.000000
endloop
endfacet
facet normal 0.000000 0.000000 -1.000000
outer loop
vertex -1.250000 5.375000 0.000000
vertex -1.562500 5.375000 0.000000
vertex -1.562500 5.562500 0.000000
endloop
endfacet
facet normal 0.000000 0.000000 -1.000000
outer loop
vertex -1.250000 5.562500 0.000000
vertex -1.562500 5.562500 0.000000
vertex -1.562500 5.750000 0.000000
endloop
endfacet
facet normal 0.000000 0.000000 -1.000000
outer loop
vertex -1.250000 4.625000 0.000000
vertex -1.562500 4.625000 0.000000
vertex -1.562500 4.812500 0.000000
endloop
endfacet
facet normal 0.000000 0.000000 -1.000000
outer loop
vertex -1.250000 5.000000 0.000000
vertex -1.562500 5.000000 0.000000
vertex -1.562500 5.187500 0.000000
endloop
endfacet
facet normal 0.000000 0.000000 -1.000000
outer loop
vertex -1.250000 4.812500 0.000000
vertex -1.562500 4.812500 0.000000
vertex -1.562500 5.000000 0.000000
endloop
endfacet
facet normal 0.000000 0.000000 -1.000000
outer loop
vertex -1.250000 5.187500 0.000000
vertex -1.562500 5.187500 0.000000
vertex -1.562500 5.375000 0.000000
endloop
endfacet
facet normal 0.000000 0.000000 -1.000000
outer loop
vertex -1.250000 4.250000 0.000000
vertex -1.562500 4.250000 0.000000
vertex -1.562500 4.437500 0.000000
endloop
endfacet
facet normal 0.000000 0.000000 -1.000000
outer loop
vertex -1.875000 4.250000 0.000000
vertex -2.187500 4.250000 0.000000
vertex -2.187500 4.437500 0.000000
endloop
endfacet
facet normal 0.000000 0.000000 -1.000000
outer loop
vertex -1.875000 5.187500 0.000000
vertex -2.187500 5.187500 0.000000
vertex -2.187500 5.375000 0.000000
endloop
endfacet
facet normal 0.000000 0.000000 -1.000000
outer loop
vertex -1.875000 4.812500 0.000000
vertex -2.187500 4.812500 0.000000
vertex -2.187500 5.000000 0.000000
endloop
endfacet
facet normal 0.000000 0.000000 -1.000000
outer loop
vertex -1.875000 5.000000 0.000000
vertex -2.187500 5.000000 0.000000
vertex -2.187500 5.187500 0.000000
endloop
endfacet
facet normal 0.000000 0.000000 -1.000000
outer loop
vertex -1.875000 4.625000 0.000000
vertex -2.187500 4.625000 0.000000
vertex -2.187500 4.812500 0.000000
endloop
endfacet
facet normal 0.000000 0.000000 -1.000000
outer loop
vertex -1.875000 5.562500 0.000000
vertex -2.187500 5.562500 0.000000
vertex -2.187500 5.750000 0.000000
endloop
endfacet
facet normal 0.000000 0.000000 -1.000000
outer loop
vertex -1.875000 5.375000 0.000000
vertex -2.187500 5.375000 0.000000
vertex -2.187500 5.562500 0.000000
endloop
endfacet
facet normal 0.000000 0.000000 -1.000000
outer loop
vertex -1.875000 4.437500 0.000000
vertex -2.187500 4.437500 0.000000
vertex -2.187500 4.625000 0.000000
endloop
endfacet
endsolid Inlet
